<?xml version="1.0" encoding="utf-8"?>
<!-- Generator: Adobe Illustrator 26.0.0, SVG Export Plug-In . SVG Version: 6.00 Build 0)  -->
<svg version="1.1" id="Capa_1" xmlns="http://www.w3.org/2000/svg" xmlns:xlink="http://www.w3.org/1999/xlink" x="0px" y="0px"
	 viewBox="0 0 488.1 683.1" style="enable-background:new 0 0 488.1 683.1;" xml:space="preserve">
<style type="text/css">
	.st0{fill:#FFFFFF;}
	.st1{fill:#72AA66;}
</style>
<g>
	<path class="st0" d="M222.3,0C366,0.1,467.4,88.2,485.9,208.6c5,32.4,1.4,63.6-8.2,94.5c-19.5,62.7-48.8,121.2-79.2,179
		c-29.9,56.8-62.2,112.3-96,167c-28,45.3-88.8,45.3-116.6-0.1C138,570.7,92.2,491.2,52.8,408.1c-15.3-32.3-28.8-65.3-40.3-99.2
		c-23.7-69.4-12.7-134.7,25.7-195C85.8,38.9,156.2,2.3,222.3,0z"/>
	<g>
		<path class="st1" d="M244.3,297.1c0-42.3-0.1-84.6,0.1-126.9c0.1-19.8,13.4-35.7,32.7-39.6c5.1-1,10.3-1,15.3,0.5
			c3.4,1,5.6,0.2,8.2-2.4c22.3-22.5,59.9-14.8,69.4,14.9c2.8,8.8,6.2,11.8,15.2,13.2c19.4,2.9,31.5,23.7,26.2,42.7
			c-1.2,4.4-0.9,7,3,10c18.5,14.3,20,40.2,3.4,56.7c-3.2,3.2-4,5.1-1.4,9.3c15.4,25.4-1.2,57.7-31,60.3c-3.9,0.3-4.8,1.3-3.6,5
			c7.7,22.7-4.5,52.3-32.5,61.5c-3.3,1.1-4.5,3.2-5.5,6.2c-4.9,14.7-15.4,22.7-30.5,24.3c-4.6,0.5-6.8,2.1-9,6
			c-11.8,21.2-42.6,22.4-55.3,2.3c-3.4-5.3-4.5-11.2-4.5-17.5C244.3,381.3,244.2,339.2,244.3,297.1
			C244.3,297.1,244.3,297.1,244.3,297.1z M308,324.3c-2.1,0.6-4.1,1.2-6.2,1.8c-19.3,5.5-42.8-11.7-42.2-31.4
			c1.3-41.7,0.4-83.4,0.4-125c0-5.5,0-11,1.4-16.4c-6.2,7-6.8,15.5-6.8,23.9c-0.1,41.1,0,82.2-0.1,123.3c0,13.5,7.2,22.5,18.6,27.9
			C285.2,334.1,297.2,332.9,308,324.3z M399.1,318.1c-2.1,0.5-4.1,1.4-6.2,1.5c-5.8,0.4-11.9,2.1-16.6-3.3c-7.7-8.8-17.7-13.7-29-16
			c-8.7-1.8-8.7-1.7-8.8-10.6c-0.2-28.7-29-50.1-56.4-41.9c-1.8,0.5-4,0.8-3.8,3.8c0.8,0,1.6,0.2,2.3,0.1
			c25.3-5.3,54.3,15.7,53.3,46.1c-0.2,4.7,1.3,6.8,6,7.4c12.2,1.5,22.5,7.1,30.9,16c1.2,1.3,2.4,2.7,4.3,3
			C383.9,325.6,392.3,325,399.1,318.1z M291.7,437.9c-2.6,0.4-3.7,0.6-4.8,0.8c-16.5,2.6-26.8-6.1-26.8-22.7c0-19.5,0-39.1,0-58.6
			c0-7.1,0-14.2-0.2-21.3c-0.1-2.5-1-5.3-3.8-5c-2.4,0.3-1.4,3.3-1.4,5.1c-0.1,28.2-0.1,56.5,0,84.7c0,2.2,0.3,4.3,0.6,6.5
			c1.1,8.1,5.8,13.3,13.4,15.7C276.6,445.7,283.9,444.3,291.7,437.9z M391.1,209.5c-3.5,0-7.2,0.5-10.8-0.1
			c-11.4-1.7-17.6-9-21.5-19.5c-8.8-24-37.1-28.8-51.9-14.5c0.7-0.2,1.3-0.2,1.8-0.4c20.4-7.1,38.1,1.3,45.7,21.7
			c0.9,2.4,1.9,4.8,3.3,7C364.9,215.3,382.4,218.3,391.1,209.5z M355.8,386.9c-4.8,1.1-6.6-0.6-7.8-5c-1.9-6.9-6.7-12.1-12.4-16.1
			c-3.8-2.6-5.5-5.4-5.7-10.1c-0.3-7.9-3.8-14.8-9.1-20.7c-2.6-2.9-4.9-1.8-7.1,0.2c-2.7,2.4,0.4,3.4,1.5,4.5
			c5.9,6.1,9.2,13.3,9.6,21.7c0.2,4.3,1.5,7.2,5.5,9.4c5.7,3.2,9.3,8.4,12,14.3c3.4,7.6,3.4,7.6,10.7,3.6
			C353.9,388.1,354.8,387.5,355.8,386.9z M407.2,260.4c-3.1-1.2-5.5,0.2-7.9,0.4c-5,0.3-8-0.9-7.6-6.8c0.2-3.7-0.9-7.5-2.4-10.9
			c-3.1-7.3-8-13.1-15.9-15.6c-2.2-0.7-4.5-0.6-5.6,1.8c-1.1,2.3,1.1,3,2.5,3.9c11.1,6.4,16.6,15.9,16.2,28.7
			c-0.1,2.7,1.2,3.7,3.5,3.7C396.1,265.8,402,265,407.2,260.4z"/>
		<path class="st1" d="M224.7,301.8c0,43.1,0,86.2,0,129.2c0,2,0.1,4,0,5.9c-0.4,7-4.3,9.2-10.2,5.4c-12.6-8.2-24.5-17.3-36.2-26.8
			c-35.5-28.9-67.1-61.4-90.7-100.8c-18.3-30.6-30.3-63.3-29.7-99.8c0.8-43,32.6-81.2,75.1-88.5c31.3-5.4,59.2,2.2,82.7,24.1
			c6.3,5.9,9.3,12.9,9.3,22C224.5,215.6,224.7,258.7,224.7,301.8z M73,192.1c-5.3,14.4-4.9,29.5-2.9,44.3
			c4.4,32.9,18.6,61.9,37.3,88.8c24.6,35.4,55.4,64.8,89.3,91.1c5.2,4,10.6,7.8,16.2,11.8c1.8-5-0.8-7-3.7-9.1
			c-16-12-31.4-24.6-45.9-38.4c-29.1-27.8-54.9-58-72.6-94.5C76.4,256.5,68,225.6,73,192.1z"/>
	</g>
</g>
</svg>
