<?xml version="1.0" encoding="utf-8"?>
<!-- Generator: Adobe Illustrator 24.0.2, SVG Export Plug-In . SVG Version: 6.00 Build 0)  -->
<svg version="1.1" id="Capa_1" xmlns="http://www.w3.org/2000/svg" xmlns:xlink="http://www.w3.org/1999/xlink" x="0px" y="0px"
	 viewBox="0 0 2145.14 2063.31" style="enable-background:new 0 0 2145.14 2063.31;" xml:space="preserve">
<style type="text/css">
	.st0{fill:#FFFFFF;}
	.st1{clip-path:url(#SVGID_2_);}
	.st2{clip-path:url(#SVGID_4_);fill:url(#SVGID_5_);}
	.st3{fill:#DDD8D3;}
	.st4{fill:#FFBB10;}
	.st5{fill:#F9C599;}
	.st6{fill:#E9AD7F;}
	.st7{fill:#FCE1CD;}
	.st8{fill:#72AA66;}
	.st9{fill:#568849;}
	.st10{fill:#DB8952;}
	.st11{fill:#203A1C;}
	.st12{fill:#2D1435;}
	.st13{opacity:0.26;fill:#FFFFFF;}
	.st14{opacity:0.73;fill:#E9AD7F;}
	.st15{fill:#5FBDAF;}
	.st16{fill:#EFE52F;}
	.st17{fill:#452A12;}
	.st18{fill:#F2E5DC;}
	.st19{fill:#2DEACA;}
	.st20{fill:#063E36;}
	.st21{fill:#8042E2;}
	.st22{fill:#69F995;}
	.st23{fill:#FFCE00;}
	.st24{fill:#0D0E0E;}
	.st25{fill:#F49D2A;}
	.st26{fill:#9CC32C;}
	.st27{fill:#E3D2B6;}
	.st28{fill:#EEE430;}
	.st29{fill:#EFEFEF;}
	.st30{fill:#282828;}
	.st31{fill:#657F6A;}
	.st32{fill:#DFC68B;}
	.st33{clip-path:url(#SVGID_7_);}
	.st34{fill:url(#SVGID_8_);}
	.st35{clip-path:url(#SVGID_10_);}
	.st36{fill:url(#SVGID_11_);}
	.st37{fill:none;stroke:#FFFFFF;stroke-width:4;stroke-miterlimit:10;stroke-dasharray:4,6;}
	.st38{clip-path:url(#SVGID_13_);fill:#B6DAC2;}
	.st39{clip-path:url(#SVGID_13_);}
	.st40{fill:#B0CDB8;}
	.st41{clip-path:url(#SVGID_15_);fill:#B6DAC2;}
	.st42{clip-path:url(#SVGID_15_);}
	.st43{fill:#8B541B;}
	.st44{fill:none;stroke:#8B541B;stroke-width:5;stroke-miterlimit:10;stroke-dasharray:5,8;}
	.st45{fill:#1B5F2B;}
	.st46{fill:#4C3B26;}
	.st47{fill:none;stroke:#FFFFFF;stroke-width:5;stroke-miterlimit:10;stroke-dasharray:5,8;}
	.st48{fill:none;stroke:#FFFFFF;stroke-width:3;stroke-miterlimit:10;}
	.st49{fill:#1D1D1B;}
	.st50{fill:#131313;}
	.st51{fill:none;stroke:#DFC68B;stroke-miterlimit:10;}
	.st52{fill:#E5DDBA;}
	.st53{fill:#4D4D4C;}
	.st54{fill:none;stroke:#FFFFFF;stroke-miterlimit:10;}
	.st55{fill:#E8D766;}
	.st56{fill:#3D3517;}
	.st57{fill:#0D2115;}
	.st58{font-family:'AndaleMono';}
	.st59{font-size:85.0137px;}
	.st60{fill:#FFFFFF;stroke:#FFFFFF;stroke-width:5;stroke-miterlimit:10;}
	.st61{clip-path:url(#SVGID_17_);}
	.st62{clip-path:url(#SVGID_19_);fill:url(#SVGID_20_);}
	.st63{clip-path:url(#SVGID_22_);}
	.st64{clip-path:url(#SVGID_24_);fill:url(#SVGID_25_);}
	.st65{clip-path:url(#SVGID_27_);}
	.st66{clip-path:url(#SVGID_29_);fill:url(#SVGID_30_);}
	.st67{fill:#3D8C35;}
	.st68{fill:#252321;}
	.st69{fill:#F2EBC1;}
	.st70{fill:#312513;}
	.st71{fill:#192C19;}
	.st72{clip-path:url(#SVGID_32_);fill:#B6DAC2;}
	.st73{clip-path:url(#SVGID_32_);}
	.st74{fill:#FFF6E1;}
	.st75{clip-path:url(#SVGID_34_);}
	.st76{clip-path:url(#SVGID_36_);fill:url(#SVGID_37_);}
	.st77{fill:#D6C7BD;}
	.st78{fill:#35170C;}
	.st79{fill:none;}
</style>
<g>
	<path class="st0" d="M1049,451.24c143.74,0.09,245.17,88.18,263.62,208.63c4.97,32.42,1.43,63.59-8.19,94.49
		c-19.53,62.73-48.76,121.2-79.24,179.05c-29.93,56.82-62.24,112.31-95.96,166.96c-27.96,45.32-88.8,45.28-116.57-0.1
		c-47.94-78.34-93.73-157.88-133.15-240.93c-15.33-32.29-28.77-65.34-40.33-99.22c-23.68-69.4-12.73-134.65,25.67-195.02
		C912.56,490.11,982.95,453.57,1049,451.24z"/>
	<g>
		<path class="st8" d="M1071.01,748.34c0-42.31-0.12-84.63,0.05-126.94c0.08-19.83,13.43-35.65,32.74-39.59
			c5.12-1.04,10.27-1.05,15.26,0.46c3.44,1.04,5.6,0.2,8.2-2.42c22.26-22.52,59.91-14.81,69.4,14.9
			c2.82,8.84,6.16,11.81,15.15,13.17c19.37,2.94,31.51,23.68,26.17,42.73c-1.22,4.37-0.92,6.95,3,9.97
			c18.53,14.3,20.03,40.18,3.39,56.74c-3.16,3.15-3.96,5.08-1.42,9.28c15.4,25.43-1.25,57.7-30.99,60.31
			c-3.86,0.34-4.85,1.34-3.62,4.98c7.67,22.69-4.53,52.26-32.54,61.48c-3.34,1.1-4.52,3.24-5.51,6.21
			c-4.88,14.68-15.37,22.73-30.5,24.29c-4.57,0.47-6.83,2.07-9,5.97c-11.81,21.19-42.58,22.38-55.35,2.34
			c-3.41-5.35-4.54-11.2-4.53-17.51c0.09-42.12,0.05-84.23,0.05-126.35C1070.99,748.34,1071,748.34,1071.01,748.34z M1134.71,775.53
			c-2.05,0.59-4.1,1.19-6.15,1.78c-19.33,5.53-42.81-11.72-42.19-31.43c1.3-41.65,0.41-83.36,0.38-125.05
			c0-5.49-0.04-10.97,1.44-16.4c-6.19,7-6.75,15.5-6.78,23.94c-0.14,41.09-0.02,82.19-0.09,123.28
			c-0.02,13.51,7.15,22.46,18.55,27.93C1111.91,785.37,1123.9,784.15,1134.71,775.53z M1225.84,769.31
			c-2.07,0.54-4.12,1.41-6.22,1.54c-5.78,0.36-11.91,2.1-16.61-3.27c-7.73-8.85-17.73-13.65-29.03-15.97
			c-8.7-1.79-8.72-1.69-8.78-10.57c-0.2-28.71-28.99-50.13-56.39-41.93c-1.79,0.54-3.98,0.82-3.8,3.84c0.81,0.04,1.6,0.25,2.31,0.1
			c25.26-5.27,54.28,15.67,53.28,46.07c-0.15,4.67,1.33,6.78,6.02,7.36c12.22,1.51,22.48,7.06,30.94,15.95
			c1.24,1.3,2.43,2.71,4.28,3C1210.66,776.81,1219.07,776.23,1225.84,769.31z M1118.4,889.17c-2.55,0.41-3.67,0.59-4.79,0.77
			c-16.47,2.62-26.83-6.11-26.84-22.66c-0.02-19.55,0-39.09-0.01-58.64c-0.01-7.11,0.02-14.21-0.15-21.32
			c-0.06-2.45-0.99-5.35-3.79-5.03c-2.44,0.28-1.42,3.29-1.43,5.08c-0.06,28.23-0.05,56.46-0.02,84.7c0,2.16,0.27,4.33,0.56,6.47
			c1.1,8.08,5.76,13.26,13.37,15.74C1103.34,896.9,1110.68,895.57,1118.4,889.17z M1217.8,660.76c-3.51,0-7.24,0.46-10.82-0.09
			c-11.38-1.74-17.63-8.95-21.51-19.53c-8.79-24.02-37.05-28.79-51.94-14.47c0.74-0.16,1.3-0.23,1.83-0.41
			c20.37-7.09,38.07,1.33,45.65,21.66c0.89,2.4,1.91,4.8,3.27,6.96C1191.68,666.58,1209.16,669.51,1217.8,660.76z M1182.53,838.1
			c-4.75,1.12-6.63-0.59-7.84-5c-1.9-6.93-6.69-12.14-12.41-16.13c-3.76-2.63-5.53-5.37-5.74-10.08c-0.35-7.9-3.77-14.77-9.09-20.73
			c-2.62-2.93-4.86-1.8-7.08,0.16c-2.71,2.4,0.37,3.42,1.47,4.54c5.91,6.08,9.21,13.32,9.58,21.71c0.19,4.31,1.46,7.15,5.48,9.39
			c5.65,3.15,9.33,8.4,11.96,14.3c3.38,7.59,3.38,7.6,10.74,3.62C1180.6,839.35,1181.55,838.7,1182.53,838.1z M1233.89,711.68
			c-3.09-1.2-5.49,0.24-7.94,0.38c-4.98,0.27-7.98-0.88-7.6-6.75c0.24-3.74-0.93-7.45-2.4-10.9c-3.14-7.34-7.98-13.11-15.89-15.64
			c-2.23-0.71-4.49-0.61-5.61,1.79c-1.08,2.32,1.06,3.04,2.54,3.9c11.05,6.39,16.61,15.91,16.25,28.71
			c-0.07,2.66,1.24,3.65,3.47,3.72C1222.83,717.07,1228.69,716.25,1233.89,711.68z"/>
		<path class="st8" d="M1051.47,753.03c0,43.08,0,86.17,0,129.25c0,1.98,0.07,3.96-0.04,5.93c-0.4,7.03-4.35,9.21-10.22,5.39
			c-12.6-8.2-24.52-17.34-36.16-26.84c-35.45-28.93-67.1-61.36-90.74-100.84c-18.35-30.64-30.3-63.29-29.65-99.76
			c0.76-43.04,32.6-81.21,75.08-88.51c31.28-5.37,59.18,2.17,82.66,24.08c6.33,5.9,9.35,12.89,9.26,22.05
			C1051.24,666.87,1051.47,709.95,1051.47,753.03z M899.74,643.3c-5.29,14.44-4.91,29.46-2.94,44.35
			c4.36,32.91,18.56,61.89,37.27,88.81c24.61,35.4,55.41,64.81,89.34,91.1c5.2,4.03,10.62,7.78,16.19,11.83
			c1.76-5-0.83-7.01-3.65-9.12c-16-11.96-31.44-24.59-45.9-38.4c-29.06-27.76-54.94-58.02-72.58-94.47
			C903.11,707.73,894.69,676.8,899.74,643.3z"/>
	</g>
	<g>
		<path class="st0" d="M844.73,1157.87c43.65,0,73.72,11.62,73.72,53.97c0,45.7-40.01,43.12-72.75,51.38
			c16.25,0,34.92,9.81,52.62,41.83c18.67,34.86,39.53,63.26,49.71,69.97v2.58c-3.88,0-13.1-0.26-22.07-0.26h-13.1
			c-4.12,0-7.28,0-9.22,0.26c-8-13.17-18.19-30.99-30.07-52.67c-6.79-12.39-13.34-25.3-21.83-36.92
			c-7.52-10.07-15.52-14.2-23.04-14.2c-16.25,0-23.04,21.95-24.98,35.89v43.38c0,13.17,3.15,21.95,16.01,21.95v2.58
			c-14.79-0.77-23.04-1.03-32.01-1.03c-8,0-16.49,0.26-31.04,1.03v-2.58c14.31,0,16.01-9.81,16.01-24.79v-160.35
			c0-19.88-2.67-29.43-19.16-29.43v-2.58H844.73z M803.75,1296.53c5.82-19.62,17.22-29.18,29.34-35.63
			c6.06-3.1,12.13-5.68,18.43-7.75c12.61-3.87,23.52-9.29,30.31-19.62c3.4-5.16,5.34-12.39,5.58-21.69c0-1.03,0-2.07,0-2.84
			c0-35.12-24.01-48.28-51.65-48.28h-32.01V1296.53z"/>
		<path class="st0" d="M945.87,1202.28c6.79,0.26,13.58,0.52,20.37,0.52c4.37,0,16.25,0,29.83-0.77v85.47
			c0,21.69,1.94,43.9,8.97,60.42c6.79,16.53,18.67,27.11,37.59,27.11c0.73,0,1.21,0,1.94,0c35.65-0.77,52.62-46.74,53.35-86.5v-58.1
			c-0.24-17.56-3.64-25.56-19.16-25.56v-2.58c10.91,0.77,18.67,0.77,25.22,0.77c8.73,0,15.52,0,25.46-0.77v138.66
			c0,13.17-0.97,33.83,16.49,33.83v2.84c-33.71,0-48.02-9.55-48.02-42.6v-20.14c-5.82,30.73-22.8,61.97-53.59,62.74
			c-1.45,0-2.91,0-4.36,0c-21.34,0-40.26-7.23-53.59-22.72c-13.58-15.23-21.1-37.7-21.34-64.81v-58.36
			c-0.24-18.33-3.4-26.85-19.16-26.85V1202.28z"/>
		<path class="st0" d="M1163.4,1202.28c27.89,0,42.68-14.2,44.14-42.86h2.67v42.86h16.49v2.58h-16.49v139.69
			c0,17.3,3.39,30.21,16.49,30.21v2.84c-33.47,0-47.77-9.55-47.77-42.6v-96.05c0-20.4,0.97-32.79-15.52-34.08V1202.28z"/>
		<path class="st0" d="M1304.3,1274.58c-14.79-3.1-24.74-12.39-27.89-21.69c-1.7-4.65-2.67-9.04-2.67-13.17
			c0-3.1-0.24-11.1,6.55-20.92c6.79-9.81,18.67-16.53,35.41-16.53c39.77,0,72.75,14.72,75.9,57.32c0.24,2.84,0.49,5.94,0.49,8.78
			v58.1c0,24.53-1.21,48.28,16.73,48.28v2.84c-33.47,0-47.77-9.55-47.77-42.6c-8.97,27.11-28.37,42.6-58.2,42.86
			c-0.73,0-1.46,0-1.94,0c-36.62,0-56.75-19.37-56.75-51.12C1244.16,1293.94,1272.05,1280.78,1304.3,1274.58z M1310.36,1371.15
			c28.13,0,50.68-17.3,50.68-65.33v-32.02c-30.07,0-85.6-0.26-85.6,55.26C1275.44,1355.14,1285.87,1371.15,1310.36,1371.15z
			 M1279.08,1252.63c6.79,14.72,21.1,20.4,35.89,20.4c13.58-1.81,26.43-2.07,38.8-2.07h7.28c-0.73-37.96-11.16-65.07-45.83-65.84
			c-20.13,0-38.8,11.88-38.8,35.63C1276.65,1244.63,1277.38,1248.5,1279.08,1252.63z"/>
	</g>
	<g>
		<g>
			<path class="st0" d="M817.78,1493.43c-2.75,0.51-13.07,2.04-21.78,4.89c0-2.52,0-5.12,0-7.72c-2.16,1.49-5.2,3.36-7.36,4.85
				c-3.55,2.27-5.85,2.79-7.21,2.79c-9.98,0-23.86-9.63-23.86-28.26c0-17.58,14.55-31.28,32.46-31.28c1.13,0,3.84,0.09,5.97,0.74
				v-16.11c0-7.26-0.68-7.76-8.5-8.7v-3.9c7.24-0.89,16.49-2.6,21.94-4.34c0,4.89,0,9.76,0,15.16v59.51c0,6.81,0.76,7.53,5.28,8.04
				l3.06,0.34V1493.43z M796,1450.61c-1.82-3.89-5.65-6.43-10.25-6.43c-4.43,0-13.22,3.17-13.22,21.64
				c0,16.28,8.84,23.12,15.03,23.25c2.91,0,5.72-1.05,8.44-3.02V1450.61z"/>
			<path class="st0" d="M869.1,1484.78c-7.44,11.04-16.61,13.46-21.23,13.46c-15.57,0-24.6-12.69-24.6-27.7
				c0-8.85,3.58-17.39,8.57-22.76c5.27-5.84,11.94-9.07,18.41-9.07c11.29,0,19.36,10.07,19.28,20.46c-0.04,2.3-0.25,4.12-1.85,4.55
				c-2.32,0.59-18.68,1.58-31.24,2.09c0.19,14.79,8.23,21.73,16.82,21.73c4.76,0,9.4-1.92,13.75-6.01L869.1,1484.78z M847.7,1443.81
				c-5.05,0-9.59,5.82-10.64,16c5.55-0.08,10.86-0.17,16.61-0.38c1.85-0.08,2.57-0.47,2.57-2.55
				C856.35,1450.35,853.09,1443.81,847.7,1443.81z"/>
			<path class="st0" d="M874.75,1496.71v-4.07c7.13-1.01,7.62-1.65,7.62-9.83v-59.17c0-7.04-0.68-7.81-7.42-9.08v-3.82
				c7.64-0.85,15.7-2.56,20.79-4.34c0,5.83,0,11.71,0,17.63v58.77c0,8.43,0.49,8.98,7.66,9.83v4.07H874.75z"/>
			<path class="st0" d="M982.11,1451.27c12.21,2.29,21.26,8.5,21.26,20.72c0,8.18-4.63,15.41-11.55,19.5
				c-6.16,3.62-13.37,5.23-22.07,5.23h-32.15v-4.32c9.57-1.02,10.4-1.84,10.4-12.34v-49.54c0-10.68-1.39-11.74-10.33-12.47v-4.32
				h34.69c9.07,0,14.79,1.41,19.25,4.47c4.35,3.06,7.23,7.87,7.23,14.22C998.84,1443.49,989.53,1449.56,982.11,1451.27z
				 M967.39,1449.65c12.02,0,16.64-5.37,16.64-15.18c0-10.35-6.25-15.5-14.56-15.5c-3.05,0-4.97,0.38-6.01,1.11
				c-1.19,0.85-1.24,2.09-1.24,5.26v24.3H967.39z M962.21,1479.79c0,9.19,3.29,11.82,10.47,11.74c7.56-0.08,14.96-5.94,14.96-18.35
				c0-12.61-6.84-18.39-20.69-18.39h-4.74V1479.79z"/>
			<path class="st0" d="M1011.54,1496.71v-4.07c6.85-0.85,7.62-1.4,7.62-10.34v-25.39c0-8.33-0.52-8.84-6.7-9.79v-3.81
				c7.09-0.98,13.98-2.64,20.07-4.78c0,5.36,0,10.64,0,15.92v27.84c0,8.68,0.61,9.49,7.85,10.34v4.07H1011.54z M1025.03,1429.09
				c-4.14,0-7.84-3.77-7.84-8.26c0-4.83,3.7-8.35,7.96-8.35c4.29,0,7.75,3.52,7.75,8.35
				C1032.9,1425.32,1029.44,1429.09,1025.03,1429.09z"/>
			<path class="st0" d="M1092.27,1484.78c-7.44,11.04-16.61,13.46-21.23,13.46c-15.57,0-24.59-12.69-24.59-27.7
				c0-8.85,3.58-17.39,8.57-22.76c5.27-5.84,11.94-9.07,18.41-9.07c11.29,0,19.36,10.07,19.28,20.46c-0.04,2.3-0.25,4.12-1.85,4.55
				c-2.32,0.59-18.68,1.58-31.24,2.09c0.19,14.79,8.23,21.73,16.82,21.73c4.76,0,9.4-1.92,13.75-6.01L1092.27,1484.78z
				 M1070.87,1443.81c-5.05,0-9.59,5.82-10.64,16c5.55-0.08,10.86-0.17,16.61-0.38c1.85-0.08,2.57-0.47,2.57-2.55
				C1079.52,1450.35,1076.26,1443.81,1070.87,1443.81z"/>
			<path class="st0" d="M1133.82,1496.71v-4.07c5.71-0.77,6.19-1.41,6.19-10.18v-21.57c0-9.02-3.78-12.95-9.28-12.95
				c-3.75,0-7.1,1.9-10.5,4.81v30.54c0,8.15,0.56,8.57,6.24,9.33v4.07h-27.15v-4.07c6.82-1.06,7.54-1.32,7.54-9.67v-26.47
				c0-7.88-0.92-8.27-6.61-9.42v-3.82c6.58-0.94,14.01-2.6,20.14-4.94c-0.08,2.19-0.16,6.52-0.16,9.51c2.4-1.79,4.96-3.7,7.84-5.62
				c3.51-2.3,6.09-3.5,9.56-3.5c9.67,0,15.75,7.53,15.75,20.33v24.18c0,8.18,0.72,8.57,6.9,9.42v4.07H1133.82z"/>
			<path class="st0" d="M1213.03,1484.78c-7.44,11.04-16.61,13.46-21.23,13.46c-15.57,0-24.59-12.69-24.59-27.7
				c0-8.85,3.58-17.39,8.57-22.76c5.27-5.84,11.94-9.07,18.41-9.07c11.29,0,19.36,10.07,19.28,20.46c-0.04,2.3-0.25,4.12-1.85,4.55
				c-2.32,0.59-18.68,1.58-31.24,2.09c0.19,14.79,8.23,21.73,16.82,21.73c4.76,0,9.4-1.92,13.75-6.01L1213.03,1484.78z
				 M1191.63,1443.81c-5.05,0-9.59,5.82-10.64,16c5.55-0.08,10.86-0.17,16.61-0.38c1.85-0.08,2.57-0.47,2.57-2.55
				C1200.28,1450.35,1197.02,1443.81,1191.63,1443.81z"/>
			<path class="st0" d="M1253.02,1456.35c-2.78-8.4-6.52-12.85-12.75-12.85c-3.65,0-6.73,2.78-6.73,7.3c0,4.83,3.17,7.3,9.57,10.37
				c9.92,4.82,16.02,8.98,16.02,18.49c0,12.41-10.93,18.58-21.03,18.58c-6.24,0-12.38-2.38-14.89-3.74c-0.52-3.21-1.6-11.39-2-15.77
				l3.79-0.72c2.39,8.09,7.06,15.31,15.06,15.31c4.56,0,7.38-3.07,7.38-7.36c0-4.58-2.3-7.52-9.36-11.17
				c-8.08-4.18-15.46-8.51-15.46-18.62c0-9.82,7.67-17.47,19.88-17.47c5.5,0,9.82,1.28,12.45,1.83c0.36,3.31,1.35,11.44,1.88,14.75
				L1253.02,1456.35z"/>
			<path class="st0" d="M1291.59,1496.75c-2.04,1.07-3.96,1.49-4.92,1.49c-8.69,0-13.7-4.73-13.7-15.86v-36.16h-7.88l-0.64-1.53
				l3.39-4.45h5.13v-10.64c3.45-2.89,8.48-6.7,12.01-9.59l1.64,0.75c-0.16,4.12-0.36,11.11-0.28,19.48h12.58
				c1.08,1.28,0.64,4.83-0.88,5.98h-11.7V1478c0,10.09,3.84,11.51,6.41,11.51c2.33,0,4.31-0.65,6.3-1.54l1.16,4.15L1291.59,1496.75z
				"/>
			<path class="st0" d="M1344.93,1498.24c-2.73,0-5.37-1.1-6.8-2.59c-1.64-1.58-2.43-3.36-3.03-5.08
				c-4.64,3.28-10.52,7.67-13.3,7.67c-9.68,0-15.72-8.2-15.72-16.2c0-6.59,3-10.01,9.44-12.6c7.16-2.76,16.46-5.92,19.18-8.38v-4.55
				c0-7.49-2.99-11.73-8.53-11.73c-2.29,0-3.97,1.16-5.09,2.69c-1.4,1.95-2,4.6-3,8.38c-0.76,2.96-2.38,3.85-4.57,3.85
				c-2.82,0-6.45-2.89-6.45-6.28c0-2.12,1.48-3.73,4.11-5.69c4.72-3.43,11.76-7.49,18.52-9.02c4.38,0,8.33,1.15,11.55,3.61
				c4.82,3.83,6.43,8.84,6.43,15.39v22.98c0,6.04,1.96,7.66,3.96,7.66c1.28,0,2.61-0.47,3.93-1.16l1.28,4.07L1344.93,1498.24z
				 M1334.69,1466.02c-2.33,1.32-5.74,3.09-8.27,4.45c-4.01,2.09-6.38,4.43-6.38,8.91c0,7.02,4.72,9.75,7.78,9.75
				c2.18,0,4.79-0.8,6.87-2.94C1334.69,1480.19,1334.69,1472.02,1334.69,1466.02z"/>
			<path class="st0" d="M1391.54,1496.71h-30.23v-4.07c6.78-0.77,7.42-1.4,7.42-9.29v-27.47c0-7.1-0.48-7.65-6.58-8.79v-3.69
				c6.89-0.94,13.14-2.47,19.95-4.99c0,4.21,0,9.75,0,13.88c4.98-8.05,9.54-13.58,14.84-13.58c4.44,0,7.5,3.1,7.5,7.12
				c0,5.09-3.4,8.4-5.4,9.51c-1.51,0.77-2.63,0.31-3.51-0.5c-1.96-1.83-3.47-3.61-5.55-3.61c-2.05,0-5.55,2.46-7.88,7.9v24.17
				c0,7.93,0.75,8.4,9.44,9.33V1496.71z"/>
		</g>
	</g>
	<text transform="matrix(0.9392 0 0 1 803.7495 1612.0647)" class="st57 st58 st59">-en Jardín-</text>
</g>
</svg>
