<?xml version="1.0" encoding="utf-8"?>
<svg version="1.1" id="Capa_1" xmlns="http://www.w3.org/2000/svg" xmlns:xlink="http://www.w3.org/1999/xlink" x="0px" y="0px"
	 viewBox="0 0 2145.14 2063.31" style="enable-background:new 0 0 2145.14 2063.31;" xml:space="preserve">
<style type="text/css">
	.st0{fill:#FFFFFF;}
	.st1{clip-path:url(#SVGID_2_);}
	.st2{clip-path:url(#SVGID_4_);fill:url(#SVGID_5_);}
	.st3{fill:#DDD8D3;}
	.st4{fill:#FFBB10;}
	.st5{fill:#F9C599;}
	.st6{fill:#E9AD7F;}
	.st7{fill:#FCE1CD;}
	.st8{fill:#72AA66;}
	.st9{fill:#568849;}
	.st10{fill:#DB8952;}
	.st11{fill:#203A1C;}
	.st12{fill:#2D1435;}
	.st13{opacity:0.26;fill:#FFFFFF;}
	.st14{opacity:0.73;fill:#E9AD7F;}
	.st15{fill:#5FBDAF;}
	.st16{fill:#EFE52F;}
	.st17{fill:#452A12;}
	.st18{fill:#F2E5DC;}
	.st19{fill:#2DEACA;}
	.st20{fill:#063E36;}
	.st21{fill:#8042E2;}
	.st22{fill:#69F995;}
	.st23{fill:#FFCE00;}
	.st24{fill:#0D0E0E;}
	.st25{fill:#F49D2A;}
	.st26{fill:#9CC32C;}
	.st27{fill:#E3D2B6;}
	.st28{fill:#EEE430;}
	.st29{fill:#EFEFEF;}
	.st30{fill:#282828;}
	.st31{fill:#657F6A;}
	.st32{fill:#DFC68B;}
	.st33{clip-path:url(#SVGID_7_);}
	.st34{fill:url(#SVGID_8_);}
	.st35{clip-path:url(#SVGID_10_);}
	.st36{fill:url(#SVGID_11_);}
	.st37{fill:none;stroke:#FFFFFF;stroke-width:4;stroke-miterlimit:10;stroke-dasharray:4,6;}
	.st38{clip-path:url(#SVGID_13_);fill:#B6DAC2;}
	.st39{clip-path:url(#SVGID_13_);}
	.st40{fill:#B0CDB8;}
	.st41{clip-path:url(#SVGID_15_);fill:#B6DAC2;}
	.st42{clip-path:url(#SVGID_15_);}
	.st43{fill:#8B541B;}
	.st44{fill:none;stroke:#8B541B;stroke-width:5;stroke-miterlimit:10;stroke-dasharray:5,8;}
	.st45{fill:#1B5F2B;}
	.st46{fill:#4C3B26;}
	.st47{fill:none;stroke:#FFFFFF;stroke-width:5;stroke-miterlimit:10;stroke-dasharray:5,8;}
	.st48{fill:none;stroke:#FFFFFF;stroke-width:3;stroke-miterlimit:10;}
	.st49{fill:#1D1D1B;}
	.st50{fill:#131313;}
	.st51{fill:none;stroke:#DFC68B;stroke-miterlimit:10;}
	.st52{fill:#E5DDBA;}
	.st53{fill:#4D4D4C;}
	.st54{fill:none;stroke:#FFFFFF;stroke-miterlimit:10;}
	.st55{fill:#E8D766;}
	.st56{fill:#3D3517;}
	.st57{fill:#0D2115;}
	.st58{font-family:'AndaleMono';}
	.st59{font-size:85.0137px;}
	.st60{fill:#FFFFFF;stroke:#FFFFFF;stroke-width:5;stroke-miterlimit:10;}
	.st61{clip-path:url(#SVGID_17_);}
	.st62{clip-path:url(#SVGID_19_);fill:url(#SVGID_20_);}
	.st63{clip-path:url(#SVGID_22_);}
	.st64{clip-path:url(#SVGID_24_);fill:url(#SVGID_25_);}
	.st65{clip-path:url(#SVGID_27_);}
	.st66{clip-path:url(#SVGID_29_);fill:url(#SVGID_30_);}
	.st67{fill:#3D8C35;}
	.st68{fill:#252321;}
	.st69{fill:#F2EBC1;}
	.st70{fill:#312513;}
	.st71{fill:#192C19;}
	.st72{clip-path:url(#SVGID_32_);fill:#B6DAC2;}
	.st73{clip-path:url(#SVGID_32_);}
	.st74{fill:#FFF6E1;}
	.st75{clip-path:url(#SVGID_34_);}
	.st76{clip-path:url(#SVGID_36_);fill:url(#SVGID_37_);}
	.st77{fill:#D6C7BD;}
	.st78{fill:#35170C;}
	.st79{fill:none;}
</style>
<g>
	<path class="st0" d="M1049,451.24c143.74,0.09,245.17,88.18,263.62,208.63c4.97,32.42,1.43,63.59-8.19,94.49
		c-19.53,62.73-48.76,121.2-79.24,179.05c-29.93,56.82-62.24,112.31-95.96,166.96c-27.96,45.32-88.8,45.28-116.57-0.1
		c-47.94-78.34-93.73-157.88-133.15-240.93c-15.33-32.29-28.77-65.34-40.33-99.22c-23.68-69.4-12.73-134.65,25.67-195.02
		C912.56,490.11,982.95,453.57,1049,451.24z"/>
	<g>
		<path class="st8" d="M1071.01,748.34c0-42.31-0.12-84.63,0.05-126.94c0.08-19.83,13.43-35.65,32.74-39.59
			c5.12-1.04,10.27-1.05,15.26,0.46c3.44,1.04,5.6,0.2,8.2-2.42c22.26-22.52,59.91-14.81,69.4,14.9
			c2.82,8.84,6.16,11.81,15.15,13.17c19.37,2.94,31.51,23.68,26.17,42.73c-1.22,4.37-0.92,6.95,3,9.97
			c18.53,14.3,20.03,40.18,3.39,56.74c-3.16,3.15-3.96,5.08-1.42,9.28c15.4,25.43-1.25,57.7-30.99,60.31
			c-3.86,0.34-4.85,1.34-3.62,4.98c7.67,22.69-4.53,52.26-32.54,61.48c-3.34,1.1-4.52,3.24-5.51,6.21
			c-4.88,14.68-15.37,22.73-30.5,24.29c-4.57,0.47-6.83,2.07-9,5.97c-11.81,21.19-42.58,22.38-55.35,2.34
			c-3.41-5.35-4.54-11.2-4.53-17.51c0.09-42.12,0.05-84.23,0.05-126.35C1070.99,748.34,1071,748.34,1071.01,748.34z M1134.71,775.53
			c-2.05,0.59-4.1,1.19-6.15,1.78c-19.33,5.53-42.81-11.72-42.19-31.43c1.3-41.65,0.41-83.36,0.38-125.05
			c0-5.49-0.04-10.97,1.44-16.4c-6.19,7-6.75,15.5-6.78,23.94c-0.14,41.09-0.02,82.19-0.09,123.28
			c-0.02,13.51,7.15,22.46,18.55,27.93C1111.91,785.37,1123.9,784.15,1134.71,775.53z M1225.84,769.31
			c-2.07,0.54-4.12,1.41-6.22,1.54c-5.78,0.36-11.91,2.1-16.61-3.27c-7.73-8.85-17.73-13.65-29.03-15.97
			c-8.7-1.79-8.72-1.69-8.78-10.57c-0.2-28.71-28.99-50.13-56.39-41.93c-1.79,0.54-3.98,0.82-3.8,3.84c0.81,0.04,1.6,0.25,2.31,0.1
			c25.26-5.27,54.28,15.67,53.28,46.07c-0.15,4.67,1.33,6.78,6.02,7.36c12.22,1.51,22.48,7.06,30.94,15.95
			c1.24,1.3,2.43,2.71,4.28,3C1210.66,776.81,1219.07,776.23,1225.84,769.31z M1118.4,889.17c-2.55,0.41-3.67,0.59-4.79,0.77
			c-16.47,2.62-26.83-6.11-26.84-22.66c-0.02-19.55,0-39.09-0.01-58.64c-0.01-7.11,0.02-14.21-0.15-21.32
			c-0.06-2.45-0.99-5.35-3.79-5.03c-2.44,0.28-1.42,3.29-1.43,5.08c-0.06,28.23-0.05,56.46-0.02,84.7c0,2.16,0.27,4.33,0.56,6.47
			c1.1,8.08,5.76,13.26,13.37,15.74C1103.34,896.9,1110.68,895.57,1118.4,889.17z M1217.8,660.76c-3.51,0-7.24,0.46-10.82-0.09
			c-11.38-1.74-17.63-8.95-21.51-19.53c-8.79-24.02-37.05-28.79-51.94-14.47c0.74-0.16,1.3-0.23,1.83-0.41
			c20.37-7.09,38.07,1.33,45.65,21.66c0.89,2.4,1.91,4.8,3.27,6.96C1191.68,666.58,1209.16,669.51,1217.8,660.76z M1182.53,838.1
			c-4.75,1.12-6.63-0.59-7.84-5c-1.9-6.93-6.69-12.14-12.41-16.13c-3.76-2.63-5.53-5.37-5.74-10.08c-0.35-7.9-3.77-14.77-9.09-20.73
			c-2.62-2.93-4.86-1.8-7.08,0.16c-2.71,2.4,0.37,3.42,1.47,4.54c5.91,6.08,9.21,13.32,9.58,21.71c0.19,4.31,1.46,7.15,5.48,9.39
			c5.65,3.15,9.33,8.4,11.96,14.3c3.38,7.59,3.38,7.6,10.74,3.62C1180.6,839.35,1181.55,838.7,1182.53,838.1z M1233.89,711.68
			c-3.09-1.2-5.49,0.24-7.94,0.38c-4.98,0.27-7.98-0.88-7.6-6.75c0.24-3.74-0.93-7.45-2.4-10.9c-3.14-7.34-7.98-13.11-15.89-15.64
			c-2.23-0.71-4.49-0.61-5.61,1.79c-1.08,2.32,1.06,3.04,2.54,3.9c11.05,6.39,16.61,15.91,16.25,28.71
			c-0.07,2.66,1.24,3.65,3.47,3.72C1222.83,717.07,1228.69,716.25,1233.89,711.68z"/>
		<path class="st8" d="M1051.47,753.03c0,43.08,0,86.17,0,129.25c0,1.98,0.07,3.96-0.04,5.93c-0.4,7.03-4.35,9.21-10.22,5.39
			c-12.6-8.2-24.52-17.34-36.16-26.84c-35.45-28.93-67.1-61.36-90.74-100.84c-18.35-30.64-30.3-63.29-29.65-99.76
			c0.76-43.04,32.6-81.21,75.08-88.51c31.28-5.37,59.18,2.17,82.66,24.08c6.33,5.9,9.35,12.89,9.26,22.05
			C1051.24,666.87,1051.47,709.95,1051.47,753.03z M899.74,643.3c-5.29,14.44-4.91,29.46-2.94,44.35
			c4.36,32.91,18.56,61.89,37.27,88.81c24.61,35.4,55.41,64.81,89.34,91.1c5.2,4.03,10.62,7.78,16.19,11.83
			c1.76-5-0.83-7.01-3.65-9.12c-16-11.96-31.44-24.59-45.9-38.4c-29.06-27.76-54.94-58.02-72.58-94.47
			C903.11,707.73,894.69,676.8,899.74,643.3z"/>
	</g>
</g>
</svg>
