<?xml version="1.0" encoding="utf-8"?>
<!-- Generator: Adobe Illustrator 24.0.2, SVG Export Plug-In . SVG Version: 6.00 Build 0)  -->
<svg version="1.1" id="Capa_1" xmlns="http://www.w3.org/2000/svg" xmlns:xlink="http://www.w3.org/1999/xlink" x="0px" y="0px"
	 viewBox="0 0 2145.14 2063.31" style="enable-background:new 0 0 2145.14 2063.31;" xml:space="preserve">
<style type="text/css">
	.st0{fill:#FFFFFF;}
	.st1{clip-path:url(#SVGID_2_);}
	.st2{clip-path:url(#SVGID_4_);fill:url(#SVGID_5_);}
	.st3{fill:#DDD8D3;}
	.st4{fill:#FFBB10;}
	.st5{fill:#F9C599;}
	.st6{fill:#E9AD7F;}
	.st7{fill:#FCE1CD;}
	.st8{fill:#72AA66;}
	.st9{fill:#568849;}
	.st10{fill:#DB8952;}
	.st11{fill:#203A1C;}
	.st12{fill:#2D1435;}
	.st13{opacity:0.26;fill:#FFFFFF;}
	.st14{opacity:0.73;fill:#E9AD7F;}
	.st15{fill:#5FBDAF;}
	.st16{fill:#EFE52F;}
	.st17{fill:#452A12;}
	.st18{fill:#F2E5DC;}
	.st19{fill:#2DEACA;}
	.st20{fill:#063E36;}
	.st21{fill:#8042E2;}
	.st22{fill:#69F995;}
	.st23{fill:#FFCE00;}
	.st24{fill:#0D0E0E;}
	.st25{fill:#F49D2A;}
	.st26{fill:#9CC32C;}
	.st27{fill:#E3D2B6;}
	.st28{fill:#EEE430;}
	.st29{fill:#EFEFEF;}
	.st30{fill:#282828;}
	.st31{fill:#657F6A;}
	.st32{fill:#DFC68B;}
	.st33{clip-path:url(#SVGID_7_);}
	.st34{fill:url(#SVGID_8_);}
	.st35{clip-path:url(#SVGID_10_);}
	.st36{fill:url(#SVGID_11_);}
	.st37{fill:none;stroke:#FFFFFF;stroke-width:4;stroke-miterlimit:10;stroke-dasharray:4,6;}
	.st38{clip-path:url(#SVGID_13_);fill:#B6DAC2;}
	.st39{clip-path:url(#SVGID_13_);}
	.st40{fill:#B0CDB8;}
	.st41{clip-path:url(#SVGID_15_);fill:#B6DAC2;}
	.st42{clip-path:url(#SVGID_15_);}
	.st43{fill:#8B541B;}
	.st44{fill:none;stroke:#8B541B;stroke-width:5;stroke-miterlimit:10;stroke-dasharray:5,8;}
	.st45{fill:#1B5F2B;}
	.st46{fill:#4C3B26;}
	.st47{fill:none;stroke:#FFFFFF;stroke-width:5;stroke-miterlimit:10;stroke-dasharray:5,8;}
	.st48{fill:none;stroke:#FFFFFF;stroke-width:3;stroke-miterlimit:10;}
	.st49{fill:#1D1D1B;}
	.st50{fill:#131313;}
	.st51{fill:none;stroke:#DFC68B;stroke-miterlimit:10;}
	.st52{fill:#E5DDBA;}
	.st53{fill:#4D4D4C;}
	.st54{fill:none;stroke:#FFFFFF;stroke-miterlimit:10;}
	.st55{fill:#E8D766;}
	.st56{fill:#3D3517;}
	.st57{fill:#0D2115;}
	.st58{font-family:'AndaleMono';}
	.st59{font-size:85.0137px;}
	.st60{fill:#FFFFFF;stroke:#FFFFFF;stroke-width:5;stroke-miterlimit:10;}
	.st61{clip-path:url(#SVGID_17_);}
	.st62{clip-path:url(#SVGID_19_);fill:url(#SVGID_20_);}
	.st63{clip-path:url(#SVGID_22_);}
	.st64{clip-path:url(#SVGID_24_);fill:url(#SVGID_25_);}
	.st65{clip-path:url(#SVGID_27_);}
	.st66{clip-path:url(#SVGID_29_);fill:url(#SVGID_30_);}
	.st67{fill:#3D8C35;}
	.st68{fill:#252321;}
	.st69{fill:#F2EBC1;}
	.st70{fill:#312513;}
	.st71{fill:#192C19;}
	.st72{clip-path:url(#SVGID_32_);fill:#B6DAC2;}
	.st73{clip-path:url(#SVGID_32_);}
	.st74{fill:#FFF6E1;}
	.st75{clip-path:url(#SVGID_34_);}
	.st76{clip-path:url(#SVGID_36_);fill:url(#SVGID_37_);}
	.st77{fill:#D6C7BD;}
	.st78{fill:#35170C;}
	.st79{fill:none;}
</style>
<rect class="st8" width="2145.14" height="2063.31"/>
<g>
	<defs>
		<rect id="SVGID_14_" x="2239.69" y="-2164.74" width="2024.74" height="2065.79"/>
	</defs>
	<clipPath id="SVGID_2_">
		<use xlink:href="#SVGID_14_"  style="overflow:visible;"/>
	</clipPath>
	<g id="AIM4tO_2_" class="st1">
		<g>
			<path class="st40" d="M2135.09-2169.38c23.98,11.81,46.47,26.26,69.67,39.46c27.71,15.77,55.17,31.97,82.87,47.75
				c5.4,3.08,7.42,6.93,7.39,13.15c-0.22,55.35-0.21,110.69-0.11,166.04c0.01,5.63-1.17,9.63-6.57,12.73
				c-48.45,27.8-96.75,55.88-145.13,83.82c-2.58,1.49-5.41,2.55-8.13,3.8v286.53c18.5,10.99,36.92,22.14,55.53,32.95
				c32.06,18.61,64.19,37.11,96.44,55.39c5.68,3.22,7.94,7.11,7.91,13.69c-0.22,55.37-0.2,110.73-0.01,166.1
				c0.02,6.13-1.7,9.89-7.27,13.07c-48.26,27.63-96.33,55.58-144.48,83.38c-2.58,1.49-5.41,2.55-8.13,3.82v286.53
				c21.9,14.34,45.11,26.47,67.67,39.69c28.45,16.68,57.03,33.16,85.67,49.51c4.59,2.62,6.51,5.76,6.5,11.06
				c-0.12,56.45-0.09,112.9-0.01,169.35c0.01,4.43-1.04,7.9-5.16,10.27c-51.06,29.3-102.08,58.66-153.12,88
				c-0.46,0.27-1.03,0.35-1.55,0.52v288.17c19.69,8.86,37.56,20.98,56.28,31.57c32.26,18.24,64.1,37.21,96.3,55.55
				c5.53,3.15,7.35,6.88,7.32,13.07c-0.21,55.36-0.22,110.71-0.04,166.07c0.02,6.18-1.92,10.06-7.35,13.17
				c-39.49,22.63-78.81,45.54-118.24,68.26c-11.33,6.53-22.84,12.73-34.27,19.08c0,21.68,0,43.35,0.01,65.03
				c9.05,0.05,18.1,0.06,27.15,0.02c0.79,0,1.59-0.02,2.38-0.02c-0.01-1.5-0.01-3.01-0.03-4.51c-0.07-6.54,2.3-10.28,8.04-13.55
				c47.8-27.3,95.46-54.85,143.02-82.57c6.18-3.6,10.98-3.59,17.24,0.08c40.9,23.99,82.05,47.56,123.1,71.29
				c3.06,1.77,5.81,4.42,9.09,5.44c5.36,1.67,9.32,4.02,12.19,6.96c29-2.74,57.99-5.74,86.95-8.96
				c43.92-25.29,87.79-50.65,131.6-76.11c4.59-2.67,8.3-2.43,12.85,0.21c27.25,15.83,54.52,31.6,81.81,47.35
				c31.68-4.36,63.34-8.81,95-13.3c-41.29-23.94-82.67-47.75-124.02-71.6c-7.56-4.36-15-8.92-22.7-13.01
				c-5.17-2.75-7.23-6.45-7.22-12.42c0.18-56.18,0.16-112.37,0.02-168.55c-0.01-5.28,1.79-8.53,6.38-11.16
				c49.17-28.24,98.28-56.58,147.31-85.06c4.39-2.55,7.89-2.29,12.1,0.15c48.79,28.34,97.61,56.63,146.53,84.73
				c5.42,3.11,6.43,7.39,6.41,12.92c-0.11,27.82-0.05,55.64-0.05,83.46c-0.01,27.55-0.15,55.09,0.1,82.64
				c0.06,6.48-2.06,10.5-7.8,13.78c-41.18,23.54-82.2,47.36-123.27,71.09c-6.3,3.64-12.66,7.19-18.9,10.92
				c51.98-7.38,103.95-14.82,155.95-22.04c5.26-3.06,10.53-6.11,15.79-9.18c6.02-3.51,10.3-3.29,16.29,0.24
				c2.08,1.23,4.17,2.44,6.26,3.66c31.95-4.35,63.91-8.6,95.89-12.66c-13.73-7.92-27.46-15.83-41.18-23.75
				c-11.1-6.41-22.14-12.93-33.33-19.16c-4.59-2.56-6.38-5.97-6.37-11.24c0.13-56.48,0.14-112.97,0.01-169.45
				c-0.01-5.31,2-8.5,6.53-11.12c48.68-28.04,97.32-56.17,145.86-84.46c5.17-3.01,9.25-2.73,14.32,0.23
				c48.32,28.13,96.73,56.11,145.22,83.96c4.93,2.83,6.66,6.44,6.63,11.93c-0.17,28.11-0.08,56.21-0.08,84.32
				c0.01,27.83-0.15,55.67,0.13,83.5c0.06,6.25-2.09,10.06-7.47,13.13c-11.75,6.71-23.48,13.45-35.21,20.2
				c42.25-3.98,84.56-7.42,126.92-10.43c-6.29-3.66-12.57-7.33-18.92-10.86c-4.04-2.24-5.66-5.36-5.66-9.97
				c0.09-57.02,0.11-114.04,0.02-171.06c-0.01-4.98,2.01-8.1,6.22-10.52c48.22-27.74,96.44-55.47,144.5-83.48
				c6.2-3.62,10.97-3.58,17.21,0.07c47.54,27.82,95.26,55.35,143.04,82.77c5.42,3.11,7.49,6.87,7.43,13.11
				c-0.28,27.83-0.12,55.66-0.12,83.48c0.02,27.56-0.18,55.11,0.17,82.67c0.04,3.21-0.43,5.83-1.55,8.06
				c20.51-0.86,41.01-1.7,61.5-2.52c-0.42-1.63-0.59-3.44-0.58-5.46c0.24-27.81,0.1-55.63,0.1-83.45c0-27,0.18-54-0.12-80.99
				c-0.08-7.3,1.98-11.83,8.73-15.68c47.58-27.14,94.93-54.67,142.24-82.29c5.88-3.43,10.43-3.36,16.45,0.16
				c47.53,27.78,95.24,55.25,143.05,82.54c6.26,3.57,8.58,7.76,8.55,14.96c-0.26,53.33-0.32,106.66,0.04,159.99
				c19.38-0.37,38.76-0.69,58.14-0.94c0.11-53.6,0.12-107.2,0.01-160.8c-0.01-5.48,1.67-9.01,6.63-11.86
				c47.96-27.55,95.78-55.33,143.67-82.99c3.05-1.76,6.35-3.09,9.54-4.62v-288.17c-20.16-11.39-40.37-22.69-60.45-34.2
				c-30.26-17.35-60.36-34.99-90.7-52.19c-6.13-3.48-8.84-7.45-8.79-14.81c0.31-54.53,0.32-109.06,0.01-163.59
				c-0.05-7.9,2.69-12.14,9.49-16.02c47.57-27.14,94.89-54.74,142.31-82.14c2.58-1.49,5.41-2.54,8.13-3.8v-288.17
				c-24.17-13.68-48.4-27.26-72.5-41.07c-25.76-14.77-51.28-29.97-77.16-44.52c-7.2-4.05-10.41-8.56-10.34-17.27
				c0.44-53.97,0.38-107.95,0.06-161.92c-0.05-7.93,2.75-12.26,9.5-16.11c47.1-26.84,93.98-54.07,140.96-81.14
				c3.06-1.76,6.31-3.17,9.48-4.74v-288.17c-22.25-12.64-44.56-25.19-66.75-37.93c-28.59-16.41-57.03-33.09-85.68-49.39
				c-5.41-3.08-7.52-6.79-7.49-13.04c0.21-55.33,0.22-110.66,0.01-165.99c-0.02-6.3,2.18-9.99,7.51-13.05
				c41.34-23.74,82.55-47.72,123.84-71.53c9.43-5.44,18.46-11.6,28.56-15.83c0-46.39-0.06-92.78,0.11-139.17
				c0.02-4.09-0.9-5.21-5.02-5.02c-8.17,0.37-16.37,0.11-24.56,0.11c-0.05,27.8-0.25,55.6-0.03,83.39
				c0.05,6.52-2.17,10.36-7.91,13.64c-48.24,27.58-96.33,55.4-144.37,83.33c-4.76,2.77-8.69,3.28-13.58,0.43
				c-48.48-28.26-96.99-56.45-145.64-84.4c-5.49-3.15-7.46-6.83-7.43-13.02c0.13-27.79-0.18-55.58-0.33-83.37h-57.31
				c-1.58,25.89-0.86,51.81-0.43,77.7c0.18,10.75-3.45,16.39-12.79,21.63c-45.42,25.51-90.5,51.62-135.32,78.16
				c-8.88,5.26-15.03,5.48-24.18,0.03c-46.39-27.62-93.31-54.37-140.22-81.12c-5.55-3.16-7.53-6.75-7.52-12.95
				c0.07-27.82-0.27-55.64-0.46-83.46h-57.31c-1.38,6.76-0.6,13.6-0.64,20.39c-0.12,21.28-0.14,42.56,0.02,63.84
				c0.04,5.12-1.4,8.69-6.09,11.39c-49.4,28.38-98.72,56.89-148,85.47c-4,2.32-7.36,2.38-11.39,0.04
				c-49.3-28.6-98.64-57.12-148.05-85.52c-4.7-2.7-6.15-6.26-6.12-11.38c0.14-24.55,0.08-49.11,0.02-73.66
				c-0.01-3.53-0.43-7.05-0.66-10.57h-57.31c-0.19,26.69-0.7,53.38-0.39,80.06c0.1,8.66-2.5,13.53-10.35,17.98
				c-47.87,27.11-95.39,54.84-142.9,82.59c-4.63,2.7-8.2,2.84-12.76,0.19c-48.53-28.15-97.1-56.23-145.78-84.11
				c-5.22-2.99-7.08-6.72-7.05-12.51c0.13-28.07-0.01-56.13-0.05-84.2h-58.94c-0.19,26.97-0.67,53.94-0.37,80.9
				c0.09,8.05-2.22,12.72-9.47,16.84c-48.06,27.34-95.85,55.16-143.64,82.98c-4.55,2.65-8.19,2.73-12.8,0.06
				c-48.78-28.25-97.63-56.38-146.58-84.34c-5.43-3.1-7.57-6.92-7.51-13.11c0.24-24.25,0.12-48.51,0.07-72.76
				c-0.01-3.52-0.4-7.05-0.61-10.57h-57.31c-0.11,27.52-0.46,55.05-0.16,82.57c0.08,7.22-2.24,11.22-8.57,14.81
				c-47.36,26.94-94.58,54.14-141.61,81.66c-6.76,3.95-11.67,4.11-18.53,0.1c-47.01-27.55-94.23-54.73-141.56-81.73
				c-6.21-3.54-8.92-7.55-8.84-14.82c0.3-27.53,0.03-55.06-0.02-82.59c-7.6,0-15.24,0.39-22.81-0.13c-5.33-0.37-6.89,0.65-6.85,6.52
				C2135.24-2261.19,2135.09-2215.29,2135.09-2169.38z M2171.63-907.6c-5.23-3-7.04-6.72-7.02-12.52c0.13-55.67,0.1-111.33,0.04-167
				c-0.01-5.22,0.92-9.25,6.09-12.21c48.98-28.06,97.87-56.29,146.67-84.67c4.87-2.83,8.75-2.89,13.56-0.09
				c48.53,28.29,97.12,56.5,145.82,84.5c4.97,2.86,6.72,6.27,6.69,11.79c-0.18,28.1-0.08,56.21-0.08,84.32h0.05
				c0,27.56-0.13,55.12,0.1,82.68c0.05,6.4-1.85,10.32-7.72,13.69c-47.58,27.23-94.97,54.79-142.33,82.4
				c-5.91,3.45-11.03,4.45-17.42,0.72C2268.04-852.06,2219.88-879.9,2171.63-907.6z M3050.35-1245.81c0.01,5.3-2.41,8.47-6.88,11.03
				c-37.84,21.68-75.61,43.49-113.39,65.28c-10.86,6.27-21.8,12.42-32.48,18.99c-4.53,2.78-8.19,2.7-12.79,0.03
				c-48.81-28.34-97.7-56.55-146.68-84.6c-4.97-2.85-6.61-6.38-6.57-11.88c0.19-28.1,0.09-56.2,0.09-84.31
				c-0.02-27.28,0.21-54.57-0.18-81.85c-0.1-7.19,2.15-11.58,8.38-15.15c48.75-27.91,97.38-56.03,145.97-84.21
				c3.83-2.22,6.94-2.06,10.62,0.07c49.08,28.44,98.18,56.83,147.34,85.12c4.55,2.62,6.48,6.02,6.48,11.24
				C3050.21-1359.31,3050.25-1302.56,3050.35-1245.81z M3109.59-1413.88c-0.03-7.33,2.86-11.33,8.98-14.82
				c48.06-27.46,96-55.12,143.84-82.96c4.94-2.88,8.58-2.8,13.44,0.03c47.35,27.59,94.74,55.13,142.4,82.19
				c7.44,4.23,10.24,8.91,10.09,17.38c-0.49,27-0.18,54.01-0.18,81.02c-0.02,27.83-0.19,55.66,0.11,83.48
				c0.07,6.65-2.45,10.36-8.08,13.59c-47.79,27.37-95.49,54.89-143.05,82.66c-5.67,3.31-9.92,3.5-15.67,0.15
				c-47.82-27.88-95.78-55.53-143.83-83.03c-5.62-3.21-8.09-6.87-8.06-13.55C3109.83-1303.12,3109.84-1358.5,3109.59-1413.88z
				 M3487.91-1416.4c-0.01-5.3,2.05-8.48,6.59-11.09c48.94-28.13,97.8-56.38,146.63-84.69c4.28-2.48,7.76-2.3,12.09,0.22
				c48.1,27.92,96.26,55.74,144.56,83.32c6.22,3.55,8.72,7.77,8.62,15c-0.37,27.55-0.15,55.11-0.15,82.66
				c0,27.83-0.17,55.66,0.13,83.48c0.07,6.27-2.07,9.98-7.46,13.07c-48.47,27.84-96.85,55.84-145.17,83.95
				c-4.84,2.82-8.74,2.68-13.58-0.13c-47.86-27.8-95.81-55.46-143.85-82.94c-5.86-3.35-8.6-7.33-8.57-14.26
				C3487.97-1304,3487.98-1360.2,3487.91-1416.4z M3865.76-1414.27c-0.02-6.84,2.37-10.7,8.43-14.16
				c47.84-27.26,95.51-54.83,143.05-82.61c5.74-3.36,9.82-3.3,15.57,0.06c47.31,27.62,94.77,54.98,142.39,82.07
				c6.73,3.83,9.73,8.07,9.6,16.03c-0.45,27.54-0.17,55.09-0.17,82.63c-0.01,27.55-0.16,55.09,0.1,82.63
				c0.06,6.25-2.15,9.86-7.59,12.97c-47.77,27.37-95.46,54.91-142.99,82.7c-6.7,3.92-11.8,3.93-18.61-0.07
				c-46.76-27.47-93.71-54.6-140.8-81.49c-6.2-3.54-9.03-7.37-9-14.68C3865.99-1303.54,3865.96-1358.9,3865.76-1414.27z
				 M3987.96-1100.21c5.89,3.38,8.29,7.39,8.26,14.32c-0.27,54.81-0.28,109.62-0.05,164.43c0.03,6.89-2.27,10.96-8.21,14.34
				c-35.28,20.1-70.39,40.52-105.56,60.82c-12.98,7.49-26.06,14.81-38.9,22.55c-4.99,3.01-9.19,3.31-14.37,0.3
				c-48.78-28.34-97.65-56.55-146.59-84.62c-5.07-2.91-6.24-6.8-6.21-12.14c0.15-27.81,0.07-55.63,0.07-83.44
				c-0.01-27.27,0.19-54.54-0.14-81.8c-0.09-7.07,1.96-11.37,8.38-15.03c47.1-26.9,94.05-54.06,140.82-81.52
				c7.5-4.4,13.36-4.53,20.96-0.08C3893.43-1154.5,3940.67-1127.31,3987.96-1100.21z M3584.85-1114.63
				c8.96,5.2,17.86,10.53,26.93,15.54c4.33,2.39,6.1,5.62,6.09,10.56c-0.1,56.48-0.14,112.96,0.03,169.44
				c0.02,5.86-2.77,8.91-7.35,11.54c-34.74,20.01-69.42,40.11-104.14,60.16c-13.7,7.91-27.54,15.58-41.1,23.7
				c-5.04,3.02-9.2,3.15-14.36,0.15c-48.57-28.23-97.22-56.32-145.95-84.27c-4.88-2.8-6.83-6.22-6.79-11.8
				c0.19-28.1,0.09-56.21,0.09-84.31c0-27.56,0.16-55.12-0.11-82.67c-0.06-6.55,2.23-10.29,8-13.58
				c47.84-27.31,95.57-54.82,143.08-82.69c7.03-4.13,12.44-3.35,18.86,0.4C3506.98-1159.76,3545.93-1137.22,3584.85-1114.63z
				 M3233.55-1099.26c5.09,2.92,6.27,6.72,6.24,12.07c-0.16,27.83-0.07,55.66-0.07,83.48c0,27.83-0.08,55.66,0.07,83.48
				c0.03,5.37-1.22,9.25-6.25,12.14c-48.72,27.95-97.38,56-145.94,84.23c-5.41,3.14-9.79,3.12-15.14,0.01
				c-48.09-27.95-96.27-55.76-144.49-83.48c-4.8-2.76-6.94-6.21-6.92-11.81c0.12-56.2,0.13-112.4,0.01-168.61
				c-0.01-5.81,1.92-9.49,7.13-12.47c48.5-27.8,96.9-55.76,145.19-83.92c5-2.92,8.82-2.61,13.54,0.14
				C3135.74-1155.64,3184.59-1127.36,3233.55-1099.26z M2855.8-1099.07c4.02,2.32,5.76,5.16,5.75,9.81
				c-0.09,57-0.08,114,0.01,171.01c0.01,4.59-1.56,7.56-5.63,9.9c-48.67,28.01-97.3,56.09-145.83,84.33
				c-5.6,3.26-10.33,3.32-15.94,0.05c-48.77-28.39-97.61-56.64-146.52-84.78c-4.76-2.74-5.94-6.35-5.91-11.43
				c0.15-28.09,0.07-56.18,0.07-84.28c0.01-27.27,0.19-54.55-0.13-81.82c-0.08-6.62,2.3-10.35,7.97-13.6
				c47.52-27.27,94.95-54.71,142.23-82.39c7.21-4.22,13.01-4.3,20.32-0.02C2759.91-1154.3,2807.85-1126.69,2855.8-1099.07z
				 M2353.44-677.07c-0.02-27.27,0.14-54.54-0.14-81.81c-0.07-6.44,1.78-10.45,7.61-13.79c48.52-27.72,96.89-55.68,145.19-83.79
				c5.15-3,9.2-2.98,14.29-0.02c48.77,28.39,97.62,56.62,146.53,84.76c4.28,2.46,6.23,5.48,6.22,10.44
				c-0.09,56.72-0.1,113.45,0.02,170.17c0.01,5.08-2.23,8.09-6.34,10.46c-49.59,28.59-99.17,57.2-148.71,85.87
				c-3.44,1.99-6.34,2.06-9.87,0.02c-49.06-28.41-98.16-56.75-147.34-84.95c-5.34-3.06-7.62-6.84-7.56-13.11
				C2353.59-620.89,2353.44-648.98,2353.44-677.07z M2673.13-1245.82c0.01,5.06-2.23,7.93-6.41,10.34
				c-48.89,28.16-97.75,56.4-146.53,84.75c-4.73,2.75-8.63,3.1-13.58,0.22c-49.02-28.5-98.14-56.85-147.33-85.07
				c-4.77-2.73-5.95-6.34-5.92-11.42c0.15-28.1,0.07-56.19,0.07-84.29c0-27.55,0.16-55.1-0.12-82.65
				c-0.07-6.52,2.1-10.52,7.81-13.79c48.95-28.08,97.79-56.35,146.58-84.7c3.78-2.2,6.88-2.27,10.61-0.1
				c43.38,25.2,86.81,50.32,130.23,75.44c6.14,3.55,12.25,7.15,18.49,10.49c4.33,2.32,6.15,5.6,6.14,10.55
				C2673.06-1359.29,2673.04-1302.55,2673.13-1245.82z M2313.86-170.14c-45.77-27.08-91.83-53.65-138.08-79.89
				c-8.13-4.61-11.4-9.7-11.32-19.2c0.46-53.2,0.4-106.41,0.05-159.61c-0.06-8.7,2.56-13.9,10.26-18.27
				c47.92-27.16,95.61-54.71,143.27-82.33c4.32-2.5,7.51-2.76,11.9-0.2c43.34,25.27,86.81,50.32,130.25,75.43
				c0.24,0.14,0.47,0.29,0.7,0.42c27.95,16.21,21.96,7.09,22.47,40.23c0.34,21.82,0.06,43.66,0.06,65.48h0.15
				c0,27.83-0.13,55.66,0.1,83.49c0.05,5.95-2.14,9.37-7.29,12.32c-47.09,26.96-94.11,54.06-140.98,81.42
				C2327.96-166.5,2322.08-165.28,2313.86-170.14z M2665.84,74.65c-41.43,23.66-82.7,47.61-124.01,71.47
				c-7.31,4.23-14.75,8.27-21.86,12.82c-5.04,3.22-9.18,2.68-14.24-0.27c-34.14-19.94-68.45-39.59-102.69-59.35
				c-14.17-8.18-28.24-16.53-42.49-24.56c-5.05-2.84-7.26-6.42-7.24-12.43c0.19-55.93,0.14-111.85,0.08-167.78
				c-0.01-4.64,0.71-8.24,5.32-10.89c48.93-28.13,97.8-56.38,146.56-84.8c5.64-3.29,10.16-3.27,15.81,0.03
				c48.53,28.28,97.17,56.36,145.88,84.32c5.09,2.92,6.22,6.82,6.19,12.15c-0.15,27.83-0.07,55.65-0.07,83.48
				c-0.01,27.55-0.15,55.11,0.1,82.66C2673.24,67.66,2671.35,71.5,2665.84,74.65z M2861.51-348.53c0,27.27-0.21,54.55,0.14,81.82
				c0.09,7.09-1.93,11.24-8.39,14.92c-46.87,26.75-93.56,53.84-140.07,81.2c-7.71,4.54-13.77,4.87-21.7,0.22
				c-47.03-27.56-94.32-54.71-141.67-81.72c-6.03-3.44-8.18-7.57-8.15-14.39c0.22-55.09,0.26-110.19-0.02-165.28
				c-0.04-6.87,2.9-10.45,8.28-13.52c24.14-13.79,48.2-27.73,72.29-41.61c24.8-14.29,49.66-28.48,74.35-42.96
				c4.1-2.4,7.12-2.32,11.2,0.04c47.86,27.78,95.75,55.51,143.84,82.88c7.29,4.15,10.31,8.81,10.13,17.4
				C2861.15-402.54,2861.51-375.53,2861.51-348.53z M2896.75-495.03c-4.09,2.38-7.26,2.18-11.28-0.15
				c-48.35-28-96.75-55.91-145.26-83.64c-6.12-3.5-8.81-7.7-8.71-14.98c0.38-27.54,0.15-55.08,0.15-82.62
				c-0.01-27.81,0.16-55.63-0.14-83.44c-0.07-6.32,2.25-9.93,7.6-13c48.46-27.8,96.83-55.75,145.12-83.86
				c4.86-2.83,8.72-2.92,13.56-0.12c48.8,28.31,97.67,56.48,146.6,84.57c4.35,2.5,6.02,5.8,6.01,10.63
				c-0.12,56.72-0.22,113.44-0.14,170.15c0.01,6.05-2.73,9.29-7.71,12.16C2993.87-551.36,2945.28-523.25,2896.75-495.03z
				 M3239.64-415.65c0.32,49.1-0.09,98.2,0.26,147.3c0.06,8.36-2.36,13.07-9.94,17.36c-46.26,26.2-92.29,52.8-138.02,79.91
				c-8.77,5.2-15.24,5.01-23.81-0.04c-46.29-27.24-92.86-53.98-139.45-80.71c-5.37-3.08-7.69-6.85-7.64-13.08
				c0.22-28.09,0.1-56.19,0.1-84.29c0-27.28,0.21-54.56-0.14-81.83c-0.1-7.49,2.47-11.89,9.01-15.61
				c48.1-27.37,96.05-55.01,143.91-82.81c4.65-2.7,7.88-2.73,12.56,0c40.27,23.49,80.73,46.66,121.12,69.95
				c3.54,2.04,6.87,4.45,10.44,6.43C3244.51-438.34,3239.45-445.27,3239.64-415.65z M3276.35-496.09c-5.16,3-8.86,3.27-14.11,0.22
				c-47.85-27.82-95.82-55.44-143.9-82.87c-6.16-3.52-8.8-7.61-8.77-14.89c0.27-55.11,0.24-110.22,0.03-165.34
				c-0.03-6.8,2.1-10.96,8.14-14.41c47.59-27.18,95.1-54.51,142.37-82.23c6.63-3.89,11.4-3.71,17.84,0.05
				c47.32,27.66,94.79,55.06,142.36,82.28c5.7,3.26,8.03,7.05,7.96,13.63c-0.29,27.83-0.12,55.66-0.12,83.49
				c0.01,27.55-0.21,55.11,0.16,82.66c0.1,7.28-2.64,11.4-8.79,14.91C3371.69-551.27,3323.95-523.79,3276.35-496.09z
				 M3617.83-348.53c-0.02,27.56-0.18,55.12,0.1,82.67c0.07,6.55-2.17,10.38-7.91,13.67c-46.61,26.7-93.15,53.53-139.44,80.78
				c-8.71,5.13-15.45,5.57-24.55,0.19c-46.94-27.76-94.32-54.79-141.61-81.95c-4.25-2.44-6.25-5.42-6.24-10.43
				c0.11-56.75,0.14-113.51-0.03-170.26c-0.02-5.96,3.16-8.82,7.64-11.39c33.81-19.43,67.58-38.92,101.37-58.36
				c15.12-8.7,30.37-17.2,45.35-26.15c4.09-2.44,7.01-2.36,11.12,0.02c48.13,27.89,96.34,55.65,144.67,83.19
				c6.96,3.97,9.85,8.79,9.71,16.99C3617.54-402.56,3617.83-375.54,3617.83-348.53z M3653.1-495.4c-4.39,2.55-7.61,2.57-11.95,0.05
				c-41.27-23.93-82.68-47.65-124.02-71.46c-3.54-2.04-6.85-4.47-10.41-6.48c-22.22-12.59-18.49-6.28-18.72-31.66
				c-0.22-24-0.05-48.01-0.05-72.01h0.03c0-27.55,0.16-55.1-0.11-82.64c-0.06-6.53,2.16-10.36,7.91-13.65
				c47.79-27.37,95.44-54.96,143-82.72c5.87-3.43,10.34-3.55,16.44,0.02c47.29,27.68,94.78,55.01,142.36,82.21
				c6.12,3.5,8.86,7.46,8.82,14.81c-0.3,55.1-0.28,110.2-0.02,165.3c0.03,7.26-2.59,11.49-8.72,14.99
				C3749.39-551.07,3701.2-523.32,3653.1-495.4z M3996.17-265.85c0.03,6.65-2.44,10.37-8.06,13.6
				c-46.82,26.91-93.58,53.93-140.13,81.29c-8.16,4.79-14.62,5.38-23.18,0.32c-46.71-27.62-93.76-54.69-140.84-81.68
				c-5.44-3.12-7.73-6.66-7.67-12.93c0.25-27.83,0.11-55.67,0.11-83.5c0.01-27.56,0.17-55.12-0.11-82.68
				c-0.07-6.49,1.97-10.65,7.67-13.92c49.21-28.22,98.32-56.59,147.38-85.06c3.66-2.13,6.43-1.62,9.79,0.33
				c36.1,20.92,72.25,41.75,108.39,62.59c12.76,7.36,25.45,14.83,38.34,21.94c5.87,3.23,8.39,7.34,8.35,14.33
				C3995.94-376.09,3995.96-320.97,3996.17-265.85z M4030.54-495.2c-3.59,2.18-6.69,2.74-10.6,0.46
				c-44.27-25.85-88.61-51.57-132.94-77.33c-0.24-0.14-0.45-0.33-0.71-0.4c-18.87-5.37-21.26-18.74-20.85-36.43
				c1.17-49.64,0.55-99.32,0.25-148.98c-0.05-7.8,2.51-12.19,9.39-16.11c47.14-26.88,94.06-54.14,140.89-81.55
				c6.42-3.76,11.33-3.86,17.93,0.01c46.11,27.04,92.38,53.81,138.89,80.16c8.58,4.86,12.44,10.07,12.11,20.42
				c-0.84,26.44-0.28,52.93-0.28,79.4c0.01,27.56-0.15,55.12,0.12,82.68c0.06,6.24-2.06,10.05-7.47,13.13
				c-39.81,22.69-79.5,45.58-119.21,68.44C4048.85-506.01,4039.63-500.71,4030.54-495.2z M4363.11-447.21
				c7.65,4.34,10.32,9.47,10.26,18.21c-0.39,54.02-0.31,108.04-0.06,162.06c0.03,7.43-2.29,11.87-8.9,15.64
				c-47.61,27.16-95.06,54.61-142.38,82.27c-5.69,3.32-10.03,3.48-15.71,0.17c-48.29-28.14-96.7-56.1-145.19-83.9
				c-4.96-2.84-6.76-6.24-6.72-11.77c0.18-28.1,0.09-56.2,0.09-84.3h-0.06c0-27.56,0.16-55.11-0.12-82.67
				c-0.07-6.47,1.87-10.55,7.64-13.85c48.98-28.04,97.85-56.3,146.67-84.62c3.8-2.2,6.7-2.16,10.5,0.04
				C4267.04-502.21,4314.96-474.51,4363.11-447.21z M4365.84-1100.27c5.45,3.13,7.46,6.98,7.44,13.15
				c-0.17,55.39-0.2,110.78,0.01,166.16c0.03,6.84-2.28,10.93-8.26,14.34c-42.38,24.22-84.55,48.8-126.85,73.15
				c-28.95,16.66-19.46,16.46-47.59,0.27c-43.01-24.76-85.93-49.69-129.02-74.29c-5.2-2.97-7.24-6.4-7.19-12.32
				c0.23-28.1,0.1-56.2,0.1-84.31c0-27.56,0.13-55.12-0.11-82.67c-0.05-6.12,1.77-9.88,7.34-13.08
				c48.02-27.53,95.91-55.3,143.71-83.22c5.84-3.41,10.68-3.76,16.64-0.29C4269.89-1155.52,4317.82-1127.82,4365.84-1100.27z
				 M4223.64-1837.64c47.3,27.67,94.7,55.15,142.21,82.46c5.49,3.16,7.46,7.03,7.41,13.16c-0.21,27.82-0.09,55.64-0.09,83.46h0.03
				c0,27-0.27,54.01,0.16,81.01c0.13,8.08-2.4,12.91-9.57,16.98c-48.12,27.33-96.05,55-143.9,82.79c-4.45,2.59-7.73,2.41-11.96-0.04
				c-48.81-28.31-97.68-56.53-146.62-84.63c-4.79-2.75-6.94-6.07-6.93-11.73c0.12-55.64,0.11-111.28-0.11-166.92
				c-0.03-6.76,2.16-10.77,8.24-14.25c47.56-27.21,94.95-54.72,142.23-82.41C4211.48-1841.7,4217.01-1841.52,4223.64-1837.64z
				 M3865.79-2068.88c-0.02-6.47,2.03-10.57,7.74-13.84c39.02-22.35,77.88-44.96,116.8-67.49c8.96-5.19,18.09-10.11,26.82-15.68
				c5.26-3.36,9.61-3.39,15.03-0.23c34.13,19.93,68.43,39.58,102.67,59.32c14.17,8.17,28.24,16.52,42.54,24.43
				c5.47,3.03,7.41,6.93,7.35,13.15c-0.29,27.82-0.13,55.63-0.13,83.45c0.02,27.82-0.03,55.64,0.06,83.45
				c0.02,4.93-0.77,8.78-5.65,11.58c-48.93,28.09-97.8,56.31-146.56,84.69c-5.35,3.11-9.51,3.22-14.98,0.03
				c-47.77-27.93-95.66-55.65-143.66-83.18c-5.67-3.25-8.06-7.05-8.04-13.62C3865.98-1958.15,3865.98-2013.52,3865.79-2068.88z
				 M3825.61-1837.11c7.6-4.48,13.32-4.47,20.8-0.1c47.3,27.65,94.79,54.97,142.35,82.16c5.49,3.14,7.46,6.86,7.4,13.06
				c-0.27,27.82-0.12,55.64-0.12,83.46c-0.01,27.28-0.25,54.56,0.15,81.83c0.11,7.27-2.49,11.58-8.61,15.07
				c-39.05,22.31-77.98,44.85-116.95,67.3c-9.69,5.58-19.5,10.95-29.04,16.77c-4.05,2.47-7.22,2.21-11.26-0.13
				c-48.11-27.88-96.26-55.7-144.58-83.23c-6.69-3.81-9.6-8.12-9.55-16.1c0.33-54.55,0.28-109.11,0.04-163.66
				c-0.03-7.11,2.08-11.13,8.54-14.82C3731.93-1782.35,3778.89-1809.54,3825.61-1837.11z M3494.79-2082.26
				c32.88-18.87,65.64-37.94,98.45-56.91c15.81-9.15,31.74-18.1,47.44-27.44c4.26-2.53,7.69-2.79,12.05-0.26
				c48.61,28.17,97.27,56.26,146.04,84.16c5.75,3.29,7.68,7.38,7.61,13.87c-0.3,27.56-0.13,55.12-0.13,82.68
				c-0.01,27.83-0.16,55.67,0.1,83.49c0.06,6.16-1.78,10.08-7.26,13.22c-48.52,27.78-96.94,55.71-145.28,83.8
				c-4.84,2.81-8.58,2.94-13.5,0.08c-48.56-28.25-97.22-56.32-145.93-84.3c-4.56-2.62-6.49-5.9-6.48-11.17
				c0.12-56.48,0.14-112.96,0-169.45C3487.88-2076.15,3490-2079.51,3494.79-2082.26z M3470.81-1835.68
				c46.24,27.32,92.84,54.04,139.45,80.72c5.43,3.11,7.67,6.71,7.66,12.97c-0.17,55.65-0.15,111.3,0.04,166.95
				c0.02,5.95-2.08,9.67-7.11,12.56c-39.01,22.4-77.95,44.93-116.93,67.4c-10.16,5.85-20.49,11.4-30.49,17.52
				c-3.78,2.31-6.7,2.43-10.48,0.23c-43.38-25.19-86.84-50.27-130.28-75.36c-5.67-3.27-11.3-6.61-17.1-9.64
				c-5.45-2.85-7.49-6.91-7.43-13.18c0.3-27.82,0.13-55.65,0.13-83.48c0.02-27.83,0.11-55.65-0.05-83.48
				c-0.03-5.44,1.45-9.02,6.49-11.91c47.07-26.97,94.15-53.93,140.84-81.55C3454.84-1841.43,3461.7-1841.06,3470.81-1835.68z
				 M3118.29-2083.27c32.36-18.68,64.75-37.33,97.13-55.99c15.83-9.12,31.75-18.12,47.46-27.45c4.27-2.54,7.68-2.66,12.04-0.14
				c48.61,28.19,97.28,56.26,146.04,84.18c5.46,3.13,7.38,7.08,7.33,13.23c-0.24,27.83-0.1,55.67-0.1,83.5
				c-0.02,27.83-0.13,55.67,0.06,83.5c0.04,5.75-1.52,9.63-6.79,12.66c-48.26,27.67-96.45,55.48-144.52,83.48
				c-5.63,3.28-10.04,3.37-15.73,0.05c-48.53-28.31-97.2-56.37-145.9-84.39c-4.08-2.35-5.61-5.37-5.6-9.93
				c0.08-57.03,0.14-114.06-0.04-171.1C3109.63-2078.23,3113.79-2080.67,3118.29-2083.27z M3091.27-1836.68
				c47,27.61,94.21,54.86,141.47,82.02c5.19,2.98,7.12,6.61,7.07,12.47c-0.21,28.09-0.1,56.18-0.1,84.26
				c0,27.54-0.12,55.09,0.1,82.63c0.05,5.78-1.58,9.78-6.75,12.75c-49.63,28.51-99.2,57.12-148.72,85.81
				c-3.37,1.95-5.94,1.46-9.05-0.34c-48.85-28.23-97.72-56.42-146.66-84.5c-5.29-3.03-7.63-6.86-7.61-13.13
				c0.19-55.63,0.2-111.26,0.01-166.89c-0.02-6.88,2.47-10.84,8.43-14.26c46.57-26.71,93.06-53.57,139.3-80.84
				C3076.87-1841.47,3083.23-1841.4,3091.27-1836.68z M2740.9-2083.83c33.72-19.05,67.22-38.48,100.79-57.79
				c14.66-8.43,29.36-16.78,43.91-25.39c4.02-2.38,7.32-2.26,11.33,0.06c48.11,27.92,96.24,55.81,144.52,83.43
				c6.5,3.72,8.95,8.19,8.92,15.68c-0.28,54.3-0.3,108.6-0.01,162.89c0.04,8.06-2.43,12.73-9.67,16.84
				c-45.75,26.01-91.37,52.28-136.6,79.19c-9.6,5.71-16.8,5.37-26.08-0.1c-46.03-27.16-92.34-53.85-138.72-80.41
				c-5.81-3.32-7.82-7.2-7.75-13.7c0.29-27.83,0.12-55.66,0.12-83.49c0-26.74,0.33-53.49-0.2-80.21
				C2731.29-2074.97,2733.83-2079.84,2740.9-2083.83z M2711.18-1837.85c47.74,27.99,95.68,55.66,143.68,83.21
				c4.95,2.84,6.74,6.21,6.72,11.76c-0.14,55.91-0.17,111.83,0.03,167.75c0.02,6.26-2.14,10.09-7.49,13.15
				c-32.67,18.65-65.23,37.5-97.81,56.3c-16.05,9.26-32.18,18.41-48.07,27.95c-4.32,2.6-7.58,2.6-11.94,0.07
				c-48.59-28.17-97.26-56.19-146-84.09c-6.06-3.47-8.8-7.64-8.68-14.98c0.43-27.54,0.17-55.1,0.17-82.64h0.03
				c0-27.55,0.13-55.1-0.1-82.64c-0.05-5.95,2.13-9.55,7.2-12.46c48.2-27.72,96.37-55.48,144.35-83.56
				C2699.81-1841.87,2704.7-1841.65,2711.18-1837.85z M2360.51-2082.14c31.69-18.15,63.26-36.51,94.88-54.77
				c17.23-9.95,34.54-19.75,51.67-29.87c4.3-2.54,7.81-2.52,12.09-0.03c41.94,24.37,83.97,48.6,125.96,72.88
				c7.08,4.09,14.03,8.42,21.26,12.22c5.32,2.8,6.91,6.81,6.86,12.62c-0.22,27.81-0.1,55.63-0.1,83.44
				c-0.01,26.72-0.3,53.45,0.17,80.17c0.14,8.08-2.28,12.7-9.53,16.82c-47.14,26.82-94.09,53.99-140.8,81.55
				c-7.51,4.43-13.1,3.77-20.11-0.33c-47.53-27.78-95.19-55.33-142.91-82.78c-4.91-2.82-6.64-6.29-6.63-11.84
				c0.16-55.9,0.18-111.8-0.02-167.7C2353.28-2075.78,2355.47-2079.25,2360.51-2082.14z M2332.98-1838.06
				c47,27.66,94.23,54.93,141.58,81.97c6.54,3.73,9.12,7.94,9.01,15.48c-0.41,27.27-0.16,54.56-0.16,81.84
				c0.01,27.28-0.24,54.56,0.17,81.83c0.11,7.48-2.22,12.06-8.72,15.77c-37.2,21.18-74.22,42.67-111.31,64.04
				c-11.1,6.4-22.29,12.66-33.3,19.22c-4.13,2.46-7.44,2.83-11.97,0.2c-47.62-27.67-95.33-55.19-143.2-82.42
				c-7.48-4.25-10.66-9.17-10.59-18.07c0.41-54.28,0.3-108.57,0.1-162.86c-0.02-6.78,2.1-10.91,8.15-14.38
				c47.33-27.09,94.51-54.44,141.62-81.92C2320.73-1841.1,2325.86-1842.25,2332.98-1838.06z"/>
		</g>
	</g>
</g>
<g>
	<path class="st0" d="M1049,451.24c143.74,0.09,245.17,88.18,263.62,208.63c4.97,32.42,1.43,63.59-8.19,94.49
		c-19.53,62.73-48.76,121.2-79.24,179.05c-29.93,56.82-62.24,112.31-95.96,166.96c-27.96,45.32-88.8,45.28-116.57-0.1
		c-47.94-78.34-93.73-157.88-133.15-240.93c-15.33-32.29-28.77-65.34-40.33-99.22c-23.68-69.4-12.73-134.65,25.67-195.02
		C912.56,490.11,982.95,453.57,1049,451.24z"/>
	<g>
		<path class="st8" d="M1071.01,748.34c0-42.31-0.12-84.63,0.05-126.94c0.08-19.83,13.43-35.65,32.74-39.59
			c5.12-1.04,10.27-1.05,15.26,0.46c3.44,1.04,5.6,0.2,8.2-2.42c22.26-22.52,59.91-14.81,69.4,14.9
			c2.82,8.84,6.16,11.81,15.15,13.17c19.37,2.94,31.51,23.68,26.17,42.73c-1.22,4.37-0.92,6.95,3,9.97
			c18.53,14.3,20.03,40.18,3.39,56.74c-3.16,3.15-3.96,5.08-1.42,9.28c15.4,25.43-1.25,57.7-30.99,60.31
			c-3.86,0.34-4.85,1.34-3.62,4.98c7.67,22.69-4.53,52.26-32.54,61.48c-3.34,1.1-4.52,3.24-5.51,6.21
			c-4.88,14.68-15.37,22.73-30.5,24.29c-4.57,0.47-6.83,2.07-9,5.97c-11.81,21.19-42.58,22.38-55.35,2.34
			c-3.41-5.35-4.54-11.2-4.53-17.51c0.09-42.12,0.05-84.23,0.05-126.35C1070.99,748.34,1071,748.34,1071.01,748.34z M1134.71,775.53
			c-2.05,0.59-4.1,1.19-6.15,1.78c-19.33,5.53-42.81-11.72-42.19-31.43c1.3-41.65,0.41-83.36,0.38-125.05
			c0-5.49-0.04-10.97,1.44-16.4c-6.19,7-6.75,15.5-6.78,23.94c-0.14,41.09-0.02,82.19-0.09,123.28
			c-0.02,13.51,7.15,22.46,18.55,27.93C1111.91,785.37,1123.9,784.15,1134.71,775.53z M1225.84,769.31
			c-2.07,0.54-4.12,1.41-6.22,1.54c-5.78,0.36-11.91,2.1-16.61-3.27c-7.73-8.85-17.73-13.65-29.03-15.97
			c-8.7-1.79-8.72-1.69-8.78-10.57c-0.2-28.71-28.99-50.13-56.39-41.93c-1.79,0.54-3.98,0.82-3.8,3.84c0.81,0.04,1.6,0.25,2.31,0.1
			c25.26-5.27,54.28,15.67,53.28,46.07c-0.15,4.67,1.33,6.78,6.02,7.36c12.22,1.51,22.48,7.06,30.94,15.95
			c1.24,1.3,2.43,2.71,4.28,3C1210.66,776.81,1219.07,776.23,1225.84,769.31z M1118.4,889.17c-2.55,0.41-3.67,0.59-4.79,0.77
			c-16.47,2.62-26.83-6.11-26.84-22.66c-0.02-19.55,0-39.09-0.01-58.64c-0.01-7.11,0.02-14.21-0.15-21.32
			c-0.06-2.45-0.99-5.35-3.79-5.03c-2.44,0.28-1.42,3.29-1.43,5.08c-0.06,28.23-0.05,56.46-0.02,84.7c0,2.16,0.27,4.33,0.56,6.47
			c1.1,8.08,5.76,13.26,13.37,15.74C1103.34,896.9,1110.68,895.57,1118.4,889.17z M1217.8,660.76c-3.51,0-7.24,0.46-10.82-0.09
			c-11.38-1.74-17.63-8.95-21.51-19.53c-8.79-24.02-37.05-28.79-51.94-14.47c0.74-0.16,1.3-0.23,1.83-0.41
			c20.37-7.09,38.07,1.33,45.65,21.66c0.89,2.4,1.91,4.8,3.27,6.96C1191.68,666.58,1209.16,669.51,1217.8,660.76z M1182.53,838.1
			c-4.75,1.12-6.63-0.59-7.84-5c-1.9-6.93-6.69-12.14-12.41-16.13c-3.76-2.63-5.53-5.37-5.74-10.08c-0.35-7.9-3.77-14.77-9.09-20.73
			c-2.62-2.93-4.86-1.8-7.08,0.16c-2.71,2.4,0.37,3.42,1.47,4.54c5.91,6.08,9.21,13.32,9.58,21.71c0.19,4.31,1.46,7.15,5.48,9.39
			c5.65,3.15,9.33,8.4,11.96,14.3c3.38,7.59,3.38,7.6,10.74,3.62C1180.6,839.35,1181.55,838.7,1182.53,838.1z M1233.89,711.68
			c-3.09-1.2-5.49,0.24-7.94,0.38c-4.98,0.27-7.98-0.88-7.6-6.75c0.24-3.74-0.93-7.45-2.4-10.9c-3.14-7.34-7.98-13.11-15.89-15.64
			c-2.23-0.71-4.49-0.61-5.61,1.79c-1.08,2.32,1.06,3.04,2.54,3.9c11.05,6.39,16.61,15.91,16.25,28.71
			c-0.07,2.66,1.24,3.65,3.47,3.72C1222.83,717.07,1228.69,716.25,1233.89,711.68z"/>
		<path class="st8" d="M1051.47,753.03c0,43.08,0,86.17,0,129.25c0,1.98,0.07,3.96-0.04,5.93c-0.4,7.03-4.35,9.21-10.22,5.39
			c-12.6-8.2-24.52-17.34-36.16-26.84c-35.45-28.93-67.1-61.36-90.74-100.84c-18.35-30.64-30.3-63.29-29.65-99.76
			c0.76-43.04,32.6-81.21,75.08-88.51c31.28-5.37,59.18,2.17,82.66,24.08c6.33,5.9,9.35,12.89,9.26,22.05
			C1051.24,666.87,1051.47,709.95,1051.47,753.03z M899.74,643.3c-5.29,14.44-4.91,29.46-2.94,44.35
			c4.36,32.91,18.56,61.89,37.27,88.81c24.61,35.4,55.41,64.81,89.34,91.1c5.2,4.03,10.62,7.78,16.19,11.83
			c1.76-5-0.83-7.01-3.65-9.12c-16-11.96-31.44-24.59-45.9-38.4c-29.06-27.76-54.94-58.02-72.58-94.47
			C903.11,707.73,894.69,676.8,899.74,643.3z"/>
	</g>
	<g>
		<path class="st0" d="M844.73,1157.87c43.65,0,73.72,11.62,73.72,53.97c0,45.7-40.01,43.12-72.75,51.38
			c16.25,0,34.92,9.81,52.62,41.83c18.67,34.86,39.53,63.26,49.71,69.97v2.58c-3.88,0-13.1-0.26-22.07-0.26h-13.1
			c-4.12,0-7.28,0-9.22,0.26c-8-13.17-18.19-30.99-30.07-52.67c-6.79-12.39-13.34-25.3-21.83-36.92
			c-7.52-10.07-15.52-14.2-23.04-14.2c-16.25,0-23.04,21.95-24.98,35.89v43.38c0,13.17,3.15,21.95,16.01,21.95v2.58
			c-14.79-0.77-23.04-1.03-32.01-1.03c-8,0-16.49,0.26-31.04,1.03v-2.58c14.31,0,16.01-9.81,16.01-24.79v-160.35
			c0-19.88-2.67-29.43-19.16-29.43v-2.58H844.73z M803.75,1296.53c5.82-19.62,17.22-29.18,29.34-35.63
			c6.06-3.1,12.13-5.68,18.43-7.75c12.61-3.87,23.52-9.29,30.31-19.62c3.4-5.16,5.34-12.39,5.58-21.69c0-1.03,0-2.07,0-2.84
			c0-35.12-24.01-48.28-51.65-48.28h-32.01V1296.53z"/>
		<path class="st0" d="M945.87,1202.28c6.79,0.26,13.58,0.52,20.37,0.52c4.37,0,16.25,0,29.83-0.77v85.47
			c0,21.69,1.94,43.9,8.97,60.42c6.79,16.53,18.67,27.11,37.59,27.11c0.73,0,1.21,0,1.94,0c35.65-0.77,52.62-46.74,53.35-86.5v-58.1
			c-0.24-17.56-3.64-25.56-19.16-25.56v-2.58c10.91,0.77,18.67,0.77,25.22,0.77c8.73,0,15.52,0,25.46-0.77v138.66
			c0,13.17-0.97,33.83,16.49,33.83v2.84c-33.71,0-48.02-9.55-48.02-42.6v-20.14c-5.82,30.73-22.8,61.97-53.59,62.74
			c-1.45,0-2.91,0-4.36,0c-21.34,0-40.26-7.23-53.59-22.72c-13.58-15.23-21.1-37.7-21.34-64.81v-58.36
			c-0.24-18.33-3.4-26.85-19.16-26.85V1202.28z"/>
		<path class="st0" d="M1163.4,1202.28c27.89,0,42.68-14.2,44.14-42.86h2.67v42.86h16.49v2.58h-16.49v139.69
			c0,17.3,3.39,30.21,16.49,30.21v2.84c-33.47,0-47.77-9.55-47.77-42.6v-96.05c0-20.4,0.97-32.79-15.52-34.08V1202.28z"/>
		<path class="st0" d="M1304.3,1274.58c-14.79-3.1-24.74-12.39-27.89-21.69c-1.7-4.65-2.67-9.04-2.67-13.17
			c0-3.1-0.24-11.1,6.55-20.92c6.79-9.81,18.67-16.53,35.41-16.53c39.77,0,72.75,14.72,75.9,57.32c0.24,2.84,0.49,5.94,0.49,8.78
			v58.1c0,24.53-1.21,48.28,16.73,48.28v2.84c-33.47,0-47.77-9.55-47.77-42.6c-8.97,27.11-28.37,42.6-58.2,42.86
			c-0.73,0-1.46,0-1.94,0c-36.62,0-56.75-19.37-56.75-51.12C1244.16,1293.94,1272.05,1280.78,1304.3,1274.58z M1310.36,1371.15
			c28.13,0,50.68-17.3,50.68-65.33v-32.02c-30.07,0-85.6-0.26-85.6,55.26C1275.44,1355.14,1285.87,1371.15,1310.36,1371.15z
			 M1279.08,1252.63c6.79,14.72,21.1,20.4,35.89,20.4c13.58-1.81,26.43-2.07,38.8-2.07h7.28c-0.73-37.96-11.16-65.07-45.83-65.84
			c-20.13,0-38.8,11.88-38.8,35.63C1276.65,1244.63,1277.38,1248.5,1279.08,1252.63z"/>
	</g>
	<g>
		<g>
			<path class="st0" d="M817.78,1493.43c-2.75,0.51-13.07,2.04-21.78,4.89c0-2.52,0-5.12,0-7.72c-2.16,1.49-5.2,3.36-7.36,4.85
				c-3.55,2.27-5.85,2.79-7.21,2.79c-9.98,0-23.86-9.63-23.86-28.26c0-17.58,14.55-31.28,32.46-31.28c1.13,0,3.84,0.09,5.97,0.74
				v-16.11c0-7.26-0.68-7.76-8.5-8.7v-3.9c7.24-0.89,16.49-2.6,21.94-4.34c0,4.89,0,9.76,0,15.16v59.51c0,6.81,0.76,7.53,5.28,8.04
				l3.06,0.34V1493.43z M796,1450.61c-1.82-3.89-5.65-6.43-10.25-6.43c-4.43,0-13.22,3.17-13.22,21.64
				c0,16.28,8.84,23.12,15.03,23.25c2.91,0,5.72-1.05,8.44-3.02V1450.61z"/>
			<path class="st0" d="M869.1,1484.78c-7.44,11.04-16.61,13.46-21.23,13.46c-15.57,0-24.6-12.69-24.6-27.7
				c0-8.85,3.58-17.39,8.57-22.76c5.27-5.84,11.94-9.07,18.41-9.07c11.29,0,19.36,10.07,19.28,20.46c-0.04,2.3-0.25,4.12-1.85,4.55
				c-2.32,0.59-18.68,1.58-31.24,2.09c0.19,14.79,8.23,21.73,16.82,21.73c4.76,0,9.4-1.92,13.75-6.01L869.1,1484.78z M847.7,1443.81
				c-5.05,0-9.59,5.82-10.64,16c5.55-0.08,10.86-0.17,16.61-0.38c1.85-0.08,2.57-0.47,2.57-2.55
				C856.35,1450.35,853.09,1443.81,847.7,1443.81z"/>
			<path class="st0" d="M874.75,1496.71v-4.07c7.13-1.01,7.62-1.65,7.62-9.83v-59.17c0-7.04-0.68-7.81-7.42-9.08v-3.82
				c7.64-0.85,15.7-2.56,20.79-4.34c0,5.83,0,11.71,0,17.63v58.77c0,8.43,0.49,8.98,7.66,9.83v4.07H874.75z"/>
			<path class="st0" d="M982.11,1451.27c12.21,2.29,21.26,8.5,21.26,20.72c0,8.18-4.63,15.41-11.55,19.5
				c-6.16,3.62-13.37,5.23-22.07,5.23h-32.15v-4.32c9.57-1.02,10.4-1.84,10.4-12.34v-49.54c0-10.68-1.39-11.74-10.33-12.47v-4.32
				h34.69c9.07,0,14.79,1.41,19.25,4.47c4.35,3.06,7.23,7.87,7.23,14.22C998.84,1443.49,989.53,1449.56,982.11,1451.27z
				 M967.39,1449.65c12.02,0,16.64-5.37,16.64-15.18c0-10.35-6.25-15.5-14.56-15.5c-3.05,0-4.97,0.38-6.01,1.11
				c-1.19,0.85-1.24,2.09-1.24,5.26v24.3H967.39z M962.21,1479.79c0,9.19,3.29,11.82,10.47,11.74c7.56-0.08,14.96-5.94,14.96-18.35
				c0-12.61-6.84-18.39-20.69-18.39h-4.74V1479.79z"/>
			<path class="st0" d="M1011.54,1496.71v-4.07c6.85-0.85,7.62-1.4,7.62-10.34v-25.39c0-8.33-0.52-8.84-6.7-9.79v-3.81
				c7.09-0.98,13.98-2.64,20.07-4.78c0,5.36,0,10.64,0,15.92v27.84c0,8.68,0.61,9.49,7.85,10.34v4.07H1011.54z M1025.03,1429.09
				c-4.14,0-7.84-3.77-7.84-8.26c0-4.83,3.7-8.35,7.96-8.35c4.29,0,7.75,3.52,7.75,8.35
				C1032.9,1425.32,1029.44,1429.09,1025.03,1429.09z"/>
			<path class="st0" d="M1092.27,1484.78c-7.44,11.04-16.61,13.46-21.23,13.46c-15.57,0-24.59-12.69-24.59-27.7
				c0-8.85,3.58-17.39,8.57-22.76c5.27-5.84,11.94-9.07,18.41-9.07c11.29,0,19.36,10.07,19.28,20.46c-0.04,2.3-0.25,4.12-1.85,4.55
				c-2.32,0.59-18.68,1.58-31.24,2.09c0.19,14.79,8.23,21.73,16.82,21.73c4.76,0,9.4-1.92,13.75-6.01L1092.27,1484.78z
				 M1070.87,1443.81c-5.05,0-9.59,5.82-10.64,16c5.55-0.08,10.86-0.17,16.61-0.38c1.85-0.08,2.57-0.47,2.57-2.55
				C1079.52,1450.35,1076.26,1443.81,1070.87,1443.81z"/>
			<path class="st0" d="M1133.82,1496.71v-4.07c5.71-0.77,6.19-1.41,6.19-10.18v-21.57c0-9.02-3.78-12.95-9.28-12.95
				c-3.75,0-7.1,1.9-10.5,4.81v30.54c0,8.15,0.56,8.57,6.24,9.33v4.07h-27.15v-4.07c6.82-1.06,7.54-1.32,7.54-9.67v-26.47
				c0-7.88-0.92-8.27-6.61-9.42v-3.82c6.58-0.94,14.01-2.6,20.14-4.94c-0.08,2.19-0.16,6.52-0.16,9.51c2.4-1.79,4.96-3.7,7.84-5.62
				c3.51-2.3,6.09-3.5,9.56-3.5c9.67,0,15.75,7.53,15.75,20.33v24.18c0,8.18,0.72,8.57,6.9,9.42v4.07H1133.82z"/>
			<path class="st0" d="M1213.03,1484.78c-7.44,11.04-16.61,13.46-21.23,13.46c-15.57,0-24.59-12.69-24.59-27.7
				c0-8.85,3.58-17.39,8.57-22.76c5.27-5.84,11.94-9.07,18.41-9.07c11.29,0,19.36,10.07,19.28,20.46c-0.04,2.3-0.25,4.12-1.85,4.55
				c-2.32,0.59-18.68,1.58-31.24,2.09c0.19,14.79,8.23,21.73,16.82,21.73c4.76,0,9.4-1.92,13.75-6.01L1213.03,1484.78z
				 M1191.63,1443.81c-5.05,0-9.59,5.82-10.64,16c5.55-0.08,10.86-0.17,16.61-0.38c1.85-0.08,2.57-0.47,2.57-2.55
				C1200.28,1450.35,1197.02,1443.81,1191.63,1443.81z"/>
			<path class="st0" d="M1253.02,1456.35c-2.78-8.4-6.52-12.85-12.75-12.85c-3.65,0-6.73,2.78-6.73,7.3c0,4.83,3.17,7.3,9.57,10.37
				c9.92,4.82,16.02,8.98,16.02,18.49c0,12.41-10.93,18.58-21.03,18.58c-6.24,0-12.38-2.38-14.89-3.74c-0.52-3.21-1.6-11.39-2-15.77
				l3.79-0.72c2.39,8.09,7.06,15.31,15.06,15.31c4.56,0,7.38-3.07,7.38-7.36c0-4.58-2.3-7.52-9.36-11.17
				c-8.08-4.18-15.46-8.51-15.46-18.62c0-9.82,7.67-17.47,19.88-17.47c5.5,0,9.82,1.28,12.45,1.83c0.36,3.31,1.35,11.44,1.88,14.75
				L1253.02,1456.35z"/>
			<path class="st0" d="M1291.59,1496.75c-2.04,1.07-3.96,1.49-4.92,1.49c-8.69,0-13.7-4.73-13.7-15.86v-36.16h-7.88l-0.64-1.53
				l3.39-4.45h5.13v-10.64c3.45-2.89,8.48-6.7,12.01-9.59l1.64,0.75c-0.16,4.12-0.36,11.11-0.28,19.48h12.58
				c1.08,1.28,0.64,4.83-0.88,5.98h-11.7V1478c0,10.09,3.84,11.51,6.41,11.51c2.33,0,4.31-0.65,6.3-1.54l1.16,4.15L1291.59,1496.75z
				"/>
			<path class="st0" d="M1344.93,1498.24c-2.73,0-5.37-1.1-6.8-2.59c-1.64-1.58-2.43-3.36-3.03-5.08
				c-4.64,3.28-10.52,7.67-13.3,7.67c-9.68,0-15.72-8.2-15.72-16.2c0-6.59,3-10.01,9.44-12.6c7.16-2.76,16.46-5.92,19.18-8.38v-4.55
				c0-7.49-2.99-11.73-8.53-11.73c-2.29,0-3.97,1.16-5.09,2.69c-1.4,1.95-2,4.6-3,8.38c-0.76,2.96-2.38,3.85-4.57,3.85
				c-2.82,0-6.45-2.89-6.45-6.28c0-2.12,1.48-3.73,4.11-5.69c4.72-3.43,11.76-7.49,18.52-9.02c4.38,0,8.33,1.15,11.55,3.61
				c4.82,3.83,6.43,8.84,6.43,15.39v22.98c0,6.04,1.96,7.66,3.96,7.66c1.28,0,2.61-0.47,3.93-1.16l1.28,4.07L1344.93,1498.24z
				 M1334.69,1466.02c-2.33,1.32-5.74,3.09-8.27,4.45c-4.01,2.09-6.38,4.43-6.38,8.91c0,7.02,4.72,9.75,7.78,9.75
				c2.18,0,4.79-0.8,6.87-2.94C1334.69,1480.19,1334.69,1472.02,1334.69,1466.02z"/>
			<path class="st0" d="M1391.54,1496.71h-30.23v-4.07c6.78-0.77,7.42-1.4,7.42-9.29v-27.47c0-7.1-0.48-7.65-6.58-8.79v-3.69
				c6.89-0.94,13.14-2.47,19.95-4.99c0,4.21,0,9.75,0,13.88c4.98-8.05,9.54-13.58,14.84-13.58c4.44,0,7.5,3.1,7.5,7.12
				c0,5.09-3.4,8.4-5.4,9.51c-1.51,0.77-2.63,0.31-3.51-0.5c-1.96-1.83-3.47-3.61-5.55-3.61c-2.05,0-5.55,2.46-7.88,7.9v24.17
				c0,7.93,0.75,8.4,9.44,9.33V1496.71z"/>
		</g>
	</g>
	<text transform="matrix(0.9392 0 0 1 803.7495 1612.0647)" class="st57 st58 st59">-en Jardín-</text>
</g>
</svg>
